<?xml version="1.0" standalone="no"?>
<!DOCTYPE svg PUBLIC "-//W3C//DTD SVG 1.1//EN" "http://www.w3.org/Graphics/SVG/1.1/DTD/svg11.dtd" >
<svg xmlns="http://www.w3.org/2000/svg">
<metadata></metadata>
<defs>
<font id="barbedorregular" horiz-adv-x="1009" >
<font-face units-per-em="2048" ascent="1638" descent="-410" />
<missing-glyph horiz-adv-x="512" />
<glyph horiz-adv-x="0" />
<glyph unicode="&#xd;" horiz-adv-x="512" />
<glyph unicode=" "  horiz-adv-x="512" />
<glyph unicode="&#x09;" horiz-adv-x="512" />
<glyph unicode="&#xa0;" horiz-adv-x="512" />
<glyph unicode="!" horiz-adv-x="643" d="M164 1274q0 12 29 22l192 80l33 10q18 0 18 -40v-834q0 -66 -8 -87.5t-45 -47.5l-88 -66l-12 6v883q0 47 -8.5 63.5t-34.5 16.5q-20 0 -52 -14l-12 -4zM231 115q7 12 11 14l116 49l43 12q51 0 52 -63q0 -33 -18.5 -65.5t-45.5 -45.5l-92 -41l-21 -6l-8 8q4 12 11.5 27.5 t7.5 38.5q0 25 -10.5 43t-26.5 18h-8z" />
<glyph unicode="&#x22;" horiz-adv-x="727" d="M82 1290q0 17 20 23l144 57q33 12 39 12q31 0 30 -36q0 -10 -11 -45t-25 -82q-25 -66 -40.5 -117t-26.5 -97.5t-16.5 -51.5t-7.5 -5q-12 0 -12 15v47q0 104 -21.5 186t-48.5 82l-6 -2zM412 1290q0 17 20 23l143 57q33 12 39 12q31 0 31 -36q0 -10 -11 -45t-26 -82 q-25 -66 -40 -117t-26.5 -97.5t-16.5 -51.5t-7 -5q-12 0 -12 15v47q0 104 -21.5 186t-48.5 82l-6 -2z" />
<glyph unicode="#" horiz-adv-x="1214" d="M96 522q0 10 23 19l100 34q41 14 100 15h89l38 217h-282q-8 0 -17 8q0 10 23 19l102 34q39 14 99 15h88l59 338q8 47 25 71l47 78q6 8 11 10t7 4q8 0 11.5 -4t5.5 -6v-12l-86 -479h231l59 338q8 47 25 71l47 78q6 8 11.5 10t7.5 4q8 0 11 -4t5 -6v-12l-86 -479h266 q8 0 17 -9q0 -10 -27 -20l-96 -35q-35 -12 -101 -12h-71l-39 -217h266q8 0 16 -8q0 -10 -26 -21l-99 -35q-35 -12 -98 -12h-72l-65 -367q-8 -47 -23 -71l-49 -78q-8 -14 -20 -14q-14 0 -15 14l2 8l89 508h-230l-65 -367q-8 -47 -23 -71l-49 -78q-8 -14 -21 -14q-14 0 -14 14 l2 8l88 508h-280q-8 0 -17 8zM487 590h232l39 217h-232z" />
<glyph unicode="$" d="M72 1006q0 121 109.5 219t293.5 139v72v26.5t8 26.5l27 61q2 8 12 15q10 0 10 -17v-174l109 6q106 0 191.5 -26.5t85.5 -61.5q0 -12 -19 -24l-98 -58l-21 -6q-14 0 -14 17l2 6l2 6q0 10 -29.5 26.5t-65.5 26.5t-64.5 13.5t-78.5 3.5v-543q100 -41 156.5 -63.5t150 -81 t93.5 -218.5q0 -131 -109.5 -235.5t-302.5 -153.5v-71v-29q0 -6 -8 -25l-27 -61q-2 -8 -6 -9t-6 -3q-10 0 -10 14v176l-90 -6q-121 0 -209 29.5t-88 68.5q0 14 18 27l107 63l18 6q14 0 14 -14l-2 -8l-2 -8q0 -29 73 -57.5t161 -28.5v571q-205 66 -298 152t-93 211zM227 1075 q0 -102 52.5 -164.5t195.5 -128.5v518q-35 0 -59.5 -5t-75.5 -17q-113 -84 -113 -203zM520 70q49 0 75 4t69 14q106 100 106 236q0 100 -55.5 165.5t-194.5 131.5v-551z" />
<glyph unicode="%" horiz-adv-x="1476" d="M68 1036q0 143 102.5 243.5t247.5 100.5q115 0 190.5 -84t75.5 -211q0 -193 -125 -273.5t-227 -80.5q-115 0 -189.5 85t-74.5 220zM205 1073q0 -123 66.5 -201.5t168.5 -78.5h19q88 100 88 245q0 119 -68.5 200t-167.5 81l-18 -2q-39 -41 -63.5 -107.5t-24.5 -136.5z M252 -27l39 66l737 1194q49 78 63.5 94t46 33.5t52 27t31.5 13.5l10 -6q-6 -14 -23 -39l-766 -1241q-43 -70 -55 -83.5t-47 -30.5t-56.5 -26.5t-25.5 -9.5zM793 291q0 143 102.5 243.5t247.5 100.5q115 0 190.5 -84t75.5 -211q0 -193 -125 -273.5t-227 -80.5 q-115 0 -189.5 85t-74.5 220zM930 328q0 -119 68.5 -200t166.5 -81l19 2q88 98 88 244q0 123 -67 201.5t-169 78.5h-18q-88 -94 -88 -245z" />
<glyph unicode="&#x26;" horiz-adv-x="1320" d="M137 352q0 117 57.5 204t237.5 237q-72 117 -98.5 184t-26.5 135q0 104 98.5 186t227.5 82q86 0 145.5 -51t59.5 -125q0 -80 -52 -150.5t-202 -187.5l344 -520q12 -18 18 -29.5t8 -19.5q45 78 59.5 125t14.5 115q0 119 -56.5 199.5t-137.5 80.5h-13l-8 -2q-14 0 -14 10 q8 12 12 15l96 43q37 14 78 14h324q6 0 12 -8q-8 -12 -12 -12l-131 -43q-33 -10 -54.5 -14.5t-40.5 -4.5q-66 0 -176 16q199 -51 199 -270q0 -76 -28.5 -147.5t-92.5 -149.5l33 -53q88 -139 160 -139l45 8l12 2q8 -10 8 -14q-8 -10 -16 -13l-125 -47q-49 -20 -86 -20 q-55 0 -105 73l-53 80q-111 -80 -201 -116.5t-178 -36.5q-150 0 -246 102.5t-96 261.5zM287 451q0 -164 86 -270.5t219 -106.5q59 0 108.5 20.5t139.5 81.5q-16 16 -39 51l-320 490l-26 45l-37 -33q-70 -63 -100.5 -125.5t-30.5 -152.5zM449 1178q0 -53 14 -93.5t72 -136.5 l24 -51l41 37q113 82 113 219q0 76 -47.5 123t-124.5 47l-39 -2q-53 -68 -53 -143z" />
<glyph unicode="'" horiz-adv-x="397" d="M82 1290q0 17 20 23l144 57q33 12 39 12q31 0 30 -36q0 -10 -11 -45t-25 -82q-25 -66 -40.5 -117t-26.5 -97.5t-16.5 -51.5t-7.5 -5q-12 0 -12 15v47q0 104 -21.5 186t-48.5 82l-6 -2z" />
<glyph unicode="(" horiz-adv-x="737" d="M109 539q0 193 59 374t139 280t158 166.5t174 133.5l20 10l11 -10q-10 -14 -212 -161.5t-202 -715.5q0 -272 94 -529t173 -326.5t81 -76t4 -8.5q1 -8 -24 -18l-64 -27q-27 -10 -39 -10q-51 0 -158.5 165t-160.5 359.5t-53 393.5z" />
<glyph unicode=")" horiz-adv-x="737" d="M66 -369q10 14 211.5 162t201.5 715q0 272 -94 529t-173 327t-82 76t-3 8q0 8 25 20l65 27q18 8 39 8q49 0 156.5 -164.5t161 -359.5t53.5 -393q0 -193 -59.5 -374t-139.5 -280.5t-157.5 -167t-174.5 -133.5l-20 -10z" />
<glyph unicode="*" horiz-adv-x="911" d="M76 1085l2 13l47 14q33 10 49 10l62 -10l149 -33l43 -14q-8 39 -8 86v190q0 12 1 23.5t44 19.5l31 7l20 2q20 0 21 -19v-22l-5 -191q0 -49 -16 -98q8 6 27.5 17.5t68.5 31.5l219 92l5 -12l-25 -33q-25 -31 -41 -43t-53 -26l-146 -64l-45 -12q20 -14 29.5 -21.5 t36.5 -38.5l168 -178q12 -12 18 -24q-2 -4 -4 -9.5t-12 -13.5l-39 -39l-16 -8q-6 0 -27 20l-154 175q-14 14 -25.5 31t-25.5 46l-18 -36l-31 -60l-125 -213l-10 2l-17 88l-2 19q2 12 9.5 28.5t23.5 38.5l94 142q6 12 16.5 24t18.5 23q-29 0 -48 4l-38 8z" />
<glyph unicode="+" d="M76 653q0 10 30 21l87 31q39 14 96 14h178v178q0 61 12 94l35 94q10 27 18 27q8 -8 9 -16v-377h377q8 0 14 -8q0 -10 -25 -19l-94 -35q-33 -12 -94 -12h-178v-178q0 -57 -15 -96l-30 -86q-12 -33 -21 -33q-8 8 -8 16v377h-377q-8 0 -14 8z" />
<glyph unicode="," horiz-adv-x="450" d="M47 -272q6 14 34 48t58.5 111.5t30.5 139.5q0 35 -8 57t-21 22l-6 -2q-16 0 -16 13q0 12 20 20l115 49l47 15q33 0 33 -45t-30 -110.5t-87 -143.5l-141 -172q-4 -6 -10.5 -8.5t-8.5 -4.5z" />
<glyph unicode="-" horiz-adv-x="638" d="M0 471q0 10 35 23l96 32q50 17 107 17h385q16 0 16 -11q0 -10 -27 -20l-104 -37q-25 -10 -42 -12t-65 -2h-385q-16 0 -16 10z" />
<glyph unicode="." horiz-adv-x="450" d="M111 119q6 12 10 12l125 57l41 11q51 0 51 -66q0 -33 -18.5 -67.5t-43.5 -45.5l-100 -45l-20 -6l-9 8l3 11q8 18 8 51q0 68 -29 67h-8q-10 8 -10 13z" />
<glyph unicode="/" horiz-adv-x="917" d="M47 -344l10 25l680 1650q14 33 26.5 47.5t41.5 30.5l69 43l15 6l6 -2l2 -6l-6 -12l-674 -1637q-20 -51 -32.5 -67.5t-41.5 -34.5l-69 -41l-19 -10z" />
<glyph unicode="0" d="M92 592q0 385 123 537.5t208 201.5t169 49q147 0 237.5 -160.5t90.5 -426.5q0 -346 -99.5 -511t-201 -230.5t-199.5 -65.5q-78 0 -149.5 53t-125 176t-53.5 377zM254 662q0 -291 72 -443.5t211 -152.5h16q106 88 155.5 241.5t49.5 405.5q0 586 -293 585 q-211 -158 -211 -636z" />
<glyph unicode="1" d="M199 1198q6 12 10 14l358 166l27 8q14 0 14 -26v-1264q0 -35 10 -35l13 2q10 -12 10 -20t-18 -16l-142 -45l-16 -2q-14 0 -14 32v1172v59.5t4 42.5l-226 -104l-14 -4q-16 0 -16 20z" />
<glyph unicode="2" d="M29 10q0 10 42 50t171 186.5t223 268.5t143 238.5t49 237.5q0 139 -81.5 223t-221.5 84q-68 0 -91 -6t-103 -32l-21 -5q-14 0 -14 15q0 12 50 37.5t140.5 48t165.5 22.5q162 0 256 -90t94 -241q0 -150 -75.5 -291.5t-252.5 -346t-304 -331.5q23 2 35 3t36 1h41h367 q152 0 205 22l10 2l8 -12q-6 -12 -10 -12l-143 -57q-66 -25 -168 -25h-531q-20 0 -20 10z" />
<glyph unicode="3" d="M135 698q0 14 15 19l114 47q27 10 64 10q139 12 217 88t78 199q0 115 -72 180.5t-199 65.5q-49 0 -98 -6.5t-76 -16.5l-14 -4l-10 10q0 18 102 54t223 36q143 0 225 -67.5t82 -188.5q0 -254 -397 -366l66 4q176 0 276 -84t100 -234q0 -188 -162.5 -323t-392.5 -135 q-115 0 -114 32q0 11 10 21l76 61q6 6 13 8.5t9 4.5l11 -7l2 -6l-2 -10q0 -29 176 -29l69 5q66 55 105 138t39 171q0 319 -375 319l-125 -6l-20 -4q-14 0 -15 14z" />
<glyph unicode="4" d="M4 551q6 16 14 29l504 698q45 61 72 72l86 30l20 6q12 0 13 -22v-743h370l11 -7q-8 -14 -15 -14l-139 -45q-23 -8 -47.5 -12t-48.5 -4h-131v-400q0 -76 -43 -102l-80 -49q-16 -8 -25 -8q-10 0 -10 47v512h-535q-16 0 -16 12zM117 616q12 2 18 3.5t41 1.5h72h309v501 q0 82 4 125q-12 -23 -24.5 -42t-36.5 -56l-289 -424q-31 -43 -49.5 -64.5t-44.5 -44.5z" />
<glyph unicode="5" d="M131 16q0 10 12 21l76 67l19 9l10 -4l4 -9l-2 -10q-2 -8 29.5 -14t87.5 -6q76 0 125 8q94 80 137 165t43 195q0 158 -102.5 254t-274.5 96h-46.5t-103.5 -12l-8 6l166 465q10 31 16.5 39t30.5 25l62 41q23 14 69 14h428q4 0 7.5 -3t5.5 -5q-10 -14 -17 -17l-88 -34 q-63 -29 -184 -29h-209l-96 -291q-16 -55 -26.5 -84t-27.5 -55q80 23 150 22q188 0 303 -100t115 -266q0 -221 -201 -369.5t-420 -148.5q-90 0 -90 30z" />
<glyph unicode="6" d="M96 532q0 252 131 464t274.5 284t241 102.5t136.5 30.5q16 0 16 -18q0 -20 -161 -48t-318.5 -237t-157.5 -541v-59q6 -29 8 -47q68 94 168.5 151.5t200.5 57.5q125 0 209 -84t84 -211q0 -162 -127 -276.5t-305 -114.5q-182 0 -291 147.5t-109 398.5zM270 440 q27 -178 122 -279.5t235 -101.5l47 2q96 102 96 236q0 121 -67.5 204t-167.5 83q-134 -1 -265 -144z" />
<glyph unicode="7" d="M104 1294q8 10 15 13l106 36q41 14 66.5 18.5t75.5 4.5h553h16l8 -8l-6 -17l-506 -1112q-45 -94 -66.5 -125.5t-60.5 -54.5l-102 -59l-19 -10l-8 8l6 18l502 1133q37 80 48 103.5t28 45.5q-10 -2 -47 -3t-68 -1h-524q-16 0 -17 10z" />
<glyph unicode="8" d="M98 299q0 147 63.5 207.5t106.5 90.5t121 77l21 12q-137 72 -211 165t-74 198q0 139 125 235t305 96q152 0 242 -71.5t90 -192.5q0 -117 -63.5 -188.5t-266.5 -184.5q190 -115 266 -202.5t76 -196.5q0 -145 -129 -251.5t-309 -106.5q-170 0 -266.5 82t-96.5 231zM233 340 q0 -133 84 -213t226 -80q47 0 102 16q94 76 94 209q0 84 -30.5 141.5t-112.5 121.5l-162 124q-121 -80 -161 -144t-40 -175zM281 1106q0 -117 88 -211q14 -18 35.5 -34.5t97.5 -69.5l30 -25q125 84 168 143.5t43 149.5q0 121 -77.5 190.5t-212.5 69.5q-37 0 -78 -10 q-94 -84 -94 -203z" />
<glyph unicode="9" d="M82 989q0 162 127 276.5t305 114.5q182 0 290.5 -147.5t108.5 -398.5q0 -252 -131 -464t-275.5 -284t-240.5 -102.5t-135 -30.5q-18 0 -18 20q0 16 165.5 48t319.5 237t154 539v59q-7 29 -9 47q-68 -94 -168 -151.5t-200 -57.5q-125 0 -209 84t-84 211zM240 1069 q0 -121 67.5 -204t167.5 -83q133 1 264 144q-29 180 -123 280.5t-233 100.5l-47 -2q-96 -102 -96 -236z" />
<glyph unicode=":" horiz-adv-x="450" d="M111 119q6 12 10 12l125 57l41 11q51 0 51 -66q0 -33 -18.5 -67.5t-43.5 -45.5l-100 -45l-20 -6l-9 8l3 11q8 18 8 51q0 68 -29 67h-8q-10 8 -10 13zM111 825q6 13 10 15l125 55l41 10q51 0 51 -65q0 -35 -18.5 -68t-43.5 -45l-100 -45l-20 -6l-9 8l3 10q8 18 8 51 q0 68 -29 68h-8q-10 8 -10 12z" />
<glyph unicode=";" horiz-adv-x="450" d="M47 -272q6 14 34 48t58.5 111.5t30.5 139.5q0 35 -8 57t-21 22l-6 -2q-16 0 -16 13q0 12 20 20l115 49l47 15q33 0 33 -45t-30 -110.5t-87 -143.5l-141 -172q-4 -6 -10.5 -8.5t-8.5 -4.5zM109 825q6 13 10 15l125 55l41 10q51 0 51 -65q0 -35 -18.5 -68t-43.5 -45 l-100 -45l-20 -6l-9 8l2 10q8 18 9 51q0 68 -29 68h-8q-10 8 -10 12z" />
<glyph unicode="&#x3c;" horiz-adv-x="1024" d="M88 696v13l848 544v-75l-641 -418l641 -428v-203z" />
<glyph unicode="=" d="M76 518q0 10 30 21l89 30q39 15 96 15h629q6 0 9 -3t5 -6q0 -8 -27 -18l-92 -35q-33 -12 -96 -12h-629q-8 0 -14 8zM76 791q0 10 30 20l89 31q39 14 96 14h629q6 0 9 -3l5 -5q0 -8 -27 -19l-92 -34q-33 -12 -96 -13h-629q-8 0 -14 9z" />
<glyph unicode="&#x3e;" horiz-adv-x="1024" d="M88 129v78l641 418l-641 428v200l848 -565v-12z" />
<glyph unicode="?" horiz-adv-x="835" d="M68 1241q0 6 13 18.5t114.5 66.5t250.5 54q139 0 217 -65.5t78 -186.5q0 -78 -30.5 -135t-122.5 -163.5t-111.5 -153.5t-19.5 -158v-61q0 -35 -4 -43t-37 -27l-111 -63l-12 6v133q0 96 20.5 147.5t108.5 159t120.5 172t32.5 135.5q0 102 -65.5 166t-169.5 64 q-135 0 -191.5 -36t-72.5 -40zM246 115q6 12 10 14l117 49l43 12q51 0 51 -63q0 -33 -18.5 -65.5t-45.5 -45.5l-92 -41l-20 -6l-8 8q4 12 11 27.5t7 38.5q0 25 -10 43t-27 18h-8z" />
<glyph unicode="@" horiz-adv-x="1626" d="M123 543q0 391 228.5 623.5t617.5 232.5q264 0 419.5 -123t155.5 -336q0 -297 -178 -435t-232.5 -173t-88 -53.5t-50 -24.5t-32.5 -6q-43 0 -43 69q0 29 4 60t20 123l2 20q-172 -190 -317 -190q-172 0 -172 213q0 201 144 361.5t325 160.5q23 0 41 -2t47 -10l6 41h123 l-88 -619l-4 -41q0 -45 34 -45q27 0 71 25.5t153.5 131t109.5 343.5q0 223 -128 338.5t-371 115.5q-127 0 -255 -45t-220.5 -125.5t-147.5 -220t-55 -303.5q0 -301 114.5 -460.5t333.5 -159.5q213 0 459 98l12 -45q-276 -117 -516 -117q-266 0 -359 116t-128 226.5 t-35 235.5zM586 588q0 -180 121 -180q55 0 108 31.5t127 109.5l59 420q-68 37 -176 37h-34q-205 -139 -205 -418z" />
<glyph unicode="A" horiz-adv-x="1161" d="M-14 -4q2 27 7 41t27 72l33 77l434 1080l15 39q-8 10 -13 10l-14 -2l-8 12q0 10 16 16l111 27l41 8q16 0 27 -30l419 -1207q16 -47 27.5 -60t32.5 -13l24 6l17 -13q0 -8 -27 -18l-127 -41q-27 -10 -36 -12t-17 -2q-16 0 -23.5 9t-21.5 48l-164 483h-471l-125 -331 q-37 -96 -37 -117q0 -6 4 -10.5t6 -4.5l7 3q16 0 16 -15q0 -10 -25 -18l-114 -43l-29 -8q-12 0 -12 14zM305 596q41 6 70 6h311q41 0 70 -6q-21 12 -29 41l-137 399q-41 125 -47 168q-4 -35 -16.5 -74.5t-39.5 -103.5l-151 -389q-10 -29 -31 -41z" />
<glyph unicode="B" horiz-adv-x="1081" d="M82 1303q6 8 18 12l101 24q82 20 137 26.5t147 6.5q412 0 412 -282q0 -233 -332 -345h39q172 0 276.5 -88t104.5 -235q0 -195 -167 -311.5t-447 -116.5q-31 0 -86 3t-84 3v1292h-105q-14 0 -14 11zM371 84q111 -12 164 -12q47 0 78.5 2t84.5 10q121 104 121 274 q0 152 -102.5 238t-284.5 86h-61v-598zM371 758h159q104 51 151.5 113.5t47.5 156.5q0 133 -80 205t-225 72l-53 -2v-545z" />
<glyph unicode="C" horiz-adv-x="1165" d="M88 643q0 315 229.5 526t571.5 211q98 0 169.5 -20.5t71.5 -48.5q0 -14 -16 -25l-102 -59l-19 -6q-18 0 -18 16l2 8l4 8q0 18 -89 36t-175 18l-107 -7q-354 -190 -354 -606q0 -283 121 -421t210 -176t218 -38q164 0 297 54l8 2l10 -13q0 -8 -6 -12t-67.5 -30.5t-170 -51 t-198.5 -24.5q-268 0 -429 179t-161 480z" />
<glyph unicode="D" horiz-adv-x="1376" d="M82 1305q6 8 18 12l101 24q82 20 144.5 26.5t195.5 6.5q258 0 413.5 -67.5t243.5 -213t88 -341.5q0 -467 -331.5 -613.5t-598.5 -146.5q-87 0 -155 8v1294h-105q-14 0 -14 11zM371 88q39 -4 106.5 -8t100.5 -4q88 0 178 16q172 80 266 237.5t94 364.5q0 289 -176 449 t-500 160l-69 -3v-1212z" />
<glyph unicode="E" horiz-adv-x="1036" d="M82 1294q6 8 18 13l101 30q51 16 84.5 22.5t70.5 6.5h535h18.5t8.5 -10q-4 -4 -10.5 -8.5t-20.5 -10.5l-101 -32q-39 -12 -63.5 -16.5t-54.5 -4.5h-297v-528h512q12 0 21 -1t7 -10q0 -8 -30 -18l-103 -33q-39 -12 -63.5 -16t-55.5 -4h-288v-592h377q137 0 200 18l13 2 q12 -8 12 -12q-8 -12 -17 -14l-32 -10l-103 -31q-123 -35 -211 -35h-409v1284h-105q-14 0 -14 10z" />
<glyph unicode="F" horiz-adv-x="931" d="M82 1294q6 8 18 13l101 30q51 16 84.5 22.5t70.5 6.5h541q12 0 21.5 -1t7.5 -9q0 -8 -31 -19l-102 -32q-39 -12 -63.5 -16.5t-55.5 -4.5h-303v-530h514q12 0 21 -1t7 -10q-14 -14 -30 -18l-103 -33q-39 -12 -63.5 -16t-54.5 -4h-291v-518v-61.5t12 -22.5h14l13 -13 q0 -10 -21 -18l-143 -51l-31 -8q-14 0 -14 26v1278h-105q-14 0 -14 10z" />
<glyph unicode="G" horiz-adv-x="1339" d="M88 637q0 317 231.5 530t581.5 213q94 0 164 -20.5t70 -48.5q0 -12 -19 -25l-100 -59l-19 -6q-18 0 -18 16l2 8l4 8q0 18 -89 36t-175 18l-109 -7q-356 -197 -356 -614q0 -299 164 -462t383 -163q121 0 207 25v498q0 80 -54 80q-14 0 -43 -13l-14 -4q-10 10 -10 15 q8 12 16 14l217 84l25 10l16 4q17 0 17 -39v-637q-129 -51 -266.5 -81.5t-239.5 -30.5q-236 0 -411 157.5t-175 493.5z" />
<glyph unicode="H" horiz-adv-x="1380" d="M80 1276q8 12 16 14l217 84l41 12q16 0 17 -38v-588h645v436q0 80 -53 80l-45 -10l-13 -4q-12 0 -12 14q8 12 16 14l219 84l41 12q16 0 17 -38v-1194v-61.5t12 -22.5l14 2q12 -10 13 -15q-12 -14 -21 -18l-143 -51q-20 -8 -31 -8q-14 0 -14 26v672h-645v-524v-61.5 t12 -22.5l14 2q12 -10 13 -15q-12 -14 -21 -18l-143 -51q-20 -8 -31 -8q-14 0 -14 26v1190q0 80 -54 80l-43 -10l-14 -4q-10 10 -10 14z" />
<glyph unicode="I" horiz-adv-x="567" d="M80 1276q8 12 16 14l217 84l41 12h1q16 0 16 -38v-1194v-61.5t12 -22.5h14q12 -10 13 -15q-12 -14 -21 -16l-143 -51l-31 -8q-14 0 -14 24v1192q0 80 -54 80l-43 -10l-14 -4q-10 10 -10 14z" />
<glyph unicode="J" horiz-adv-x="645" d="M-115 18q7 15 11 19l108 80q6 6 11 8t10 2q14 0 16 -14.5t17.5 -18.5t56.5 -4q55 0 94 10q41 51 59.5 136.5t18.5 234.5v725q0 80 -54 80l-43 -10l-14 -4q-10 10 -10 14q8 12 16 14l217 84l41 12q16 0 17 -20v-872q0 -158 -44 -248t-173 -175t-277 -85q-78 0 -78 32z" />
<glyph unicode="K" horiz-adv-x="1091" d="M80 1276q8 12 16 14l217 84l41 12q16 0 17 -38v-1194v-61.5t12 -22.5h14q12 -10 13 -15q-12 -14 -21 -16l-143 -51l-31 -8h-1q-13 0 -13 24v1192q0 80 -54 80l-43 -10l-14 -4q-10 10 -10 14zM399 696l349 445q79 103 79 128q0 11 -16 15l-6 12q0 8 4 11.5t31 11.5l139 53 q20 10 27.5 11t15.5 3q16 0 16 -16q0 -12 -3 -16t-34 -43l-405 -508l-49 -51q8 -6 16 -14.5t25 -32.5l330 -512q59 -94 76.5 -113t45.5 -19l31 7l6 2l8 -13q0 -10 -26 -18l-119 -39q-43 -14 -70 -14q-29 0 -46 16t-58 86z" />
<glyph unicode="L" horiz-adv-x="917" d="M80 1274q8 12 16 14l217 84l25 10l16 4q16 0 17 -38v-1260h385q102 0 188 16l14 2q4 0 7.5 -4t5.5 -6q0 -8 -7.5 -11t-91.5 -31.5t-141 -41t-117 -12.5h-413v1196q0 80 -54 80q-14 0 -43 -12l-14 -4q-10 10 -10 14z" />
<glyph unicode="M" horiz-adv-x="1863" d="M33 -2q0 18 4 35.5t26 87.5l328 1143l8 34q0 12 -12 13l-12 -2q-10 8 -10 12q0 10 20 16l92 29l55 14q12 0 17.5 -7t17.5 -48l303 -940q25 -70 37.5 -124t18.5 -114q4 47 17 97.5t48 150.5l287 848l16 57l-10 11l-14 -2q-12 8 -13 12q0 8 19 14l100 31l51 14 q10 0 13.5 -5t15.5 -44l295 -1091q16 -59 25.5 -94t20.5 -60t32 -25l22 7l15 2l8 -13q0 -8 -8 -12t-27 -10l-102 -33q-49 -16 -70 -16q-20 0 -29.5 18.5t-40.5 124.5l-213 813q-16 63 -28.5 125.5t-18.5 116.5q-16 -145 -96 -377l-199 -574q-41 -115 -57 -143.5t-70.5 -66 t-76.5 -37.5q-21 2 -33 49l-293 915q-45 141 -57 234q-8 -84 -21.5 -146.5t-56.5 -216.5l-178 -620l-19 -68l-10 -51q0 -20 14 -21l13 2l10 -12q0 -10 -14 -18l-115 -45l-33 -8q-12 0 -12 18z" />
<glyph unicode="N" horiz-adv-x="1470" d="M100 1305q12 14 25 18l135 49q39 14 51 14h3q24 0 51 -36l671 -955q53 -76 85 -126t63 -107q-4 41 -6 87t-2 120v868v31q0 41 -2.5 47t-10.5 6l-14 -2l-12 12q0 12 20 19l88 30l8 2l17 4q14 0 14 -45v-757q0 -166 -8 -318.5t-19.5 -180.5t-52.5 -66.5t-63 -38.5 q-14 0 -28 15t-34 46l-628 889q-80 113 -108 158t-56 108q10 -88 16 -188.5t6 -200.5v-678v-61.5t13 -22.5l14 2l12 -12q0 -12 -20 -19l-88 -30l-9 -2l-16 -4q-14 0 -14 45v1255q-14 25 -37 25q-12 0 -39 -11l-14 -4q-10 10 -11 15z" />
<glyph unicode="O" horiz-adv-x="1497" d="M88 653q0 174 76 322.5t256 276.5t420 128q244 0 405.5 -188t161.5 -475q0 -330 -176 -479.5t-306 -200.5t-255 -51q-254 0 -418 186t-164 481zM260 713q0 -281 157.5 -467.5t397.5 -186.5q52 1 111 15q150 76 229.5 227.5t79.5 362.5q0 283 -155.5 463t-401.5 180 q-31 0 -49.5 -2t-53.5 -13q-152 -78 -233.5 -227.5t-81.5 -351.5z" />
<glyph unicode="P" horiz-adv-x="980" d="M82 1300q6 8 18 13l101 24q41 10 71.5 17.5t59.5 7.5l180 8q440 0 440 -293q0 -170 -158.5 -287.5t-392.5 -117.5h-30v-518v-61.5t12 -22.5h14q12 -10 13 -15q-12 -12 -21 -16l-143 -51l-31 -8q-14 0 -14 24v1286h-105q-14 0 -14 10zM371 754q127 -12 155 -13l107 7 q68 31 109.5 108.5t41.5 169.5q0 276 -370 277h-43v-549z" />
<glyph unicode="Q" horiz-adv-x="1517" d="M88 641q0 305 221 522t531 217q246 0 406.5 -189.5t160.5 -477.5q0 -174 -67.5 -310.5t-215.5 -252.5q47 -8 151.5 -83t214 -124t191.5 -49q49 0 86 16l15 4l10 -8q0 -10 -11.5 -15.5t-79 -28t-115.5 -36.5t-95 -14q-72 0 -124 19.5t-140 82.5l-230 160 q-84 -43 -169 -65.5t-169 -22.5q-244 0 -407.5 188t-163.5 467zM260 700q0 -324 139.5 -445.5t230.5 -158.5t175 -37q47 1 127 19q141 70 222 222.5t81 346.5q0 285 -153.5 471.5t-391.5 186.5q-55 0 -119 -17q-152 -80 -231.5 -229.5t-79.5 -358.5z" />
<glyph unicode="R" horiz-adv-x="1150" d="M82 1300q6 8 18 13l101 24q88 20 140 26.5t155 6.5q229 0 338.5 -71.5t109.5 -223.5q0 -121 -70.5 -210t-203.5 -134q18 -8 39 -41l321 -502q43 -68 68.5 -95t48.5 -27l29 6l16 -13q0 -10 -31 -20l-106 -35q-45 -16 -70 -16q-29 0 -46 17.5t-69 98.5l-366 588l6 8 q82 27 175 77t93 235q0 141 -93 216t-267 75h-47v-1149q0 -39 1 -62.5t11 -23.5l14 2l13 -13q0 -10 -21 -18l-143 -51l-31 -8q-14 0 -14 26v1284h-105q-14 0 -14 10z" />
<glyph unicode="S" horiz-adv-x="897" d="M43 61q0 17 16 25l127 64l7 2l6 2l12 -7l4 -10l-4 -8l-2 -10q2 -16 76.5 -32.5t152.5 -16.5l84 6q111 82 111 229q0 96 -45 153.5t-210 181.5t-222.5 204t-57.5 174q0 154 145.5 258t360.5 104q88 0 141.5 -18.5t53.5 -48.5q0 -14 -21 -25l-102 -51l-21 -6q-14 10 -14 14 l2 8l2 11q-2 16 -62.5 28.5t-144.5 12.5q-45 0 -92 -7q-86 -78 -86 -200q0 -129 74 -199t103.5 -95.5t66.5 -51.5l43 -31l41 -33l43 -31q178 -129 178 -286q0 -172 -173 -278.5t-360 -106.5q-102 0 -167.5 21.5t-65.5 53.5z" />
<glyph unicode="T" horiz-adv-x="901" d="M-61 1294q2 0 8 6.5t26 14.5l80 26q76 25 152 25h784q10 0 21 -8q0 -10 -19 -17l-114 -38q-61 -18 -127 -19h-213v-1130v-61.5t12 -22.5l14 2q12 -10 12 -15q-12 -14 -20 -18l-143 -51q-18 -8 -31 -8q-14 0 -14 26v1278h-412q-8 0 -11 4t-5 6z" />
<glyph unicode="U" horiz-adv-x="1308" d="M74 1276q8 12 16 14l217 84l41 12h1q16 0 16 -38v-807q0 -111 10 -171.5t45 -132t111.5 -120.5t164.5 -49q98 0 197 41q119 135 119 391v737v31q0 41 -2 47t-11 6l-14 -2l-12 12q0 12 20 19l88 30l9 2l16 4q14 0 14 -45v-790q0 -233 -88 -348t-199.5 -166t-238.5 -51 q-399 0 -399 493v717q0 80 -54 80l-43 -10l-14 -4q-10 10 -10 14z" />
<glyph unicode="V" horiz-adv-x="1118" d="M-27 1313q0 12 23 18l125 41q47 14 65 14q16 0 28 -15t26 -62l284 -903l51 -177q10 -37 10.5 -42t4.5 -37q6 41 12 63.5t21.5 71.5t34 103t30.5 85l270 725q8 23 17.5 51.5t9.5 36.5q0 16 -12 17l-15 -3l-10 13q0 12 33 24l100 37l41 12q10 -10 11 -14l-7 -18l-8 -25 l-450 -1169q-33 -84 -47.5 -106.5t-56.5 -48t-62 -25.5q-12 0 -15.5 4t-15.5 41l-391 1194l-14 45q-12 43 -46 43l-14 -2l-12 -2l-8 -3z" />
<glyph unicode="W" horiz-adv-x="1898" d="M-27 1309q10 10 19 14l114 51q47 18 66 19q23 -1 43 -62l281 -917q31 -100 44 -157.5t19 -102.5q8 63 28.5 124.5t43.5 135.5l280 866q-8 25 -24 25l-27 -7l-10 -4q-12 10 -12 15q10 12 18 14l105 45q43 18 67 18q14 0 20.5 -10t18.5 -51l268 -872q6 -20 31 -108.5 t31 -115.5l14 -75q4 49 25 114l55 168l242 740q12 47 20 73.5t8 40.5q0 12 -14 13h-12l-11 12q0 10 25 18l96 37l47 16q12 -12 13 -16l-9 -33l-22 -61l-404 -1147q-20 -55 -31.5 -71.5t-49.5 -43.5q-57 -34 -73 -34h-1q-18 0 -29 40l-264 885l-10 41l-37 129 q-8 33 -15.5 62.5t-9.5 56.5q-16 -94 -37.5 -162.5t-40.5 -126.5l-247 -776q-23 -68 -53.5 -91.5t-61.5 -40.5t-41 -17t-12 4t-15 36l-370 1190q-20 68 -27.5 81.5t-21.5 13.5l-27 -7l-10 -4q-12 10 -13 15z" />
<glyph unicode="X" horiz-adv-x="1091" d="M47 1311q0 12 14 16l121 43q45 16 66 16q27 0 53 -45l191 -358q37 -68 54 -102.5t29 -71.5q10 35 46 90l41 68l133 241q25 53 29.5 65.5t4.5 18.5q0 14 -14 15q-16 0 -16 12t16 16l103 35l51 16q12 -10 12 -14q0 -14 -31 -65l-327 -559l325 -621q27 -49 37 -62.5 t25 -13.5q12 0 41 10l16 -12q-10 -12 -16 -14l-123 -37q-25 -8 -40.5 -13t-27.5 -5q-25 0 -35 11t-41 72l-190 375q-68 137 -84 193q-12 -39 -39 -88t-57 -105l-148 -260q-12 -25 -24.5 -49.5t-12.5 -36.5q0 -16 13 -16h8l8 -13q-8 -14 -14 -16l-117 -49l-47 -18l-12 14 q0 10 9 27.5t27 50.5l355 604l-289 553q-39 72 -43 77t-23 5q-18 0 -34 -8l-11 -3z" />
<glyph unicode="Y" horiz-adv-x="919" d="M-82 1313q0 10 23 18l122 41l54 14h4q13 0 23 -10q10 -12 57 -94l225 -403l14 -27q23 -43 42.5 -79t31.5 -71q10 27 17.5 44.5t31.5 58.5l49 88l170 305q39 72 39 94q0 6 -4 9.5t-6 5.5l-6 -2q-14 10 -14 14q0 10 22 18l121 43l29 6q12 0 12 -14q0 -10 -13.5 -33.5 t-25.5 -46.5l-387 -651v-487v-61.5t12 -22.5h14q12 -10 13 -15q-12 -14 -21 -16l-143 -51l-31 -8q-14 0 -14 24v598l-350 651q-20 41 -27.5 48.5t-24.5 7.5q-12 0 -38 -9l-11 -2q-10 10 -10 15z" />
<glyph unicode="Z" horiz-adv-x="989" d="M55 8l11 29l600 1130q25 47 40 76t31 47q-18 -4 -51 -5t-68 -1h-532l-8 8q14 14 26 19l101 37q53 18 121 18h583q29 0 29 -12l-16 -35l-596 -1120q-35 -66 -47.5 -84.5t-30.5 -36.5q39 6 49 6h22h43h404q106 0 178 18l8 2l11 -10q0 -10 -23 -16l-127 -41 q-115 -37 -205 -37h-526q-27 0 -27 8z" />
<glyph unicode="[" horiz-adv-x="700" d="M190 -344v1769l113 45q25 10 47.5 14.5t57.5 4.5h256l10 -6l-10 -8l-101 -35q-53 -18 -100 -19h-123v-1695h324l10 -9l-10 -6l-99 -33q-45 -14 -66.5 -18t-56.5 -4h-252z" />
<glyph unicode="\" horiz-adv-x="917" d="M20 1450l3 6l6 2l14 -6l70 -43q29 -16 41 -30.5t24 -47.5l682 -1650l10 -25l-8 -8l-20 10l-68 41q-29 18 -42 35.5t-32 66.5l-675 1637z" />
<glyph unicode="]" horiz-adv-x="700" d="M25 -338l10 8l100 35q53 18 101 19h122v1695h-323l-10 8l10 7l98 32q45 14 66.5 18.5t56.5 4.5h252v-1770l-113 -45q-25 -10 -47 -14t-57 -4h-256z" />
<glyph unicode="^" horiz-adv-x="1024" d="M-49 586l565 848h14l545 -848h-76l-417 641l-428 -641h-203z" />
<glyph unicode="_" horiz-adv-x="1024" d="M47 -180h930v-86h-930v86z" />
<glyph unicode="`" horiz-adv-x="1024" d="M240 1444q0 12 18 18l113 47l18 7q6 0 10 -5.5t7 -7.5l-3 -10q-8 -18 -8 -39q0 -53 78 -160.5t124 -141.5t47 -38t3 -6q-12 -10 -16 -10q-8 0 -43 23.5t-114 83t-156.5 137t-77.5 102.5z" />
<glyph unicode="a" horiz-adv-x="905" d="M82 184q0 139 112.5 225.5t362.5 137.5v180q0 100 -28.5 135t-110.5 35l-60 -2q-82 -51 -92 -102.5t-65.5 -75t-67.5 -23.5q-14 0 -14 15q0 25 23.5 60.5t124 118.5t294.5 83q160 0 160 -187v-614q0 -61 10 -81.5t43 -20.5q31 0 86 20l12 4l13 -12q-14 -14 -27 -19 l-151 -57q-43 -18 -76 -18q-68 0 -68 114l6 95q-123 -209 -297 -209q-190 0 -190 198zM244 231q0 -70 31.5 -107.5t89.5 -37.5q49 0 93 27.5t99 95.5v297q-313 -47 -313 -275z" />
<glyph unicode="b" horiz-adv-x="1056" d="M33 1438q0 10 28 22l203 80l33 10q18 0 18 -41v-637v-28q0 -53 -4 -86t-8 -60q186 272 389 273q135 0 208 -99.5t73 -281.5q0 -248 -170 -426t-406 -178q-57 0 -100 8t-102 29l-21 -11l-14 -6q-8 8 -8 17v1341q0 47 -8.5 63.5t-34.5 16.5q-14 0 -52 -14l-12 -5zM315 121 q92 -53 254 -53l33 2q106 88 155.5 194.5t49.5 255.5q0 164 -53.5 255t-149.5 91q-74 0 -138.5 -41t-150.5 -147v-557z" />
<glyph unicode="c" horiz-adv-x="813" d="M82 414q0 254 155.5 405.5t413.5 151.5q76 0 119 -15.5t43 -42.5q0 -14 -18 -22l-131 -66l-9 -2q-18 0 -18 19l2 8l4 8q2 10 -55.5 22.5t-118.5 12.5l-57 -4q-168 -145 -168 -389q0 -193 85 -309.5t224 -116.5q90 0 211 80l16 6l11 -13q0 -10 -108 -85.5t-267 -75.5 q-147 0 -240.5 119.5t-93.5 308.5z" />
<glyph unicode="d" horiz-adv-x="1085" d="M82 362q0 256 166 432.5t409 176.5q37 0 80 -8v401q0 47 -8 63.5t-35 16.5q-14 0 -51 -14l-12 -5l-13 13q0 10 29 22l203 80l33 10q18 0 18 -41v-1329q0 -63 6 -80.5t33 -17.5q4 0 17.5 3t37.5 11l15 4q10 -8 10 -12q0 -10 -27 -22l-192 -74q-31 -12 -39 -12 q-19 0 -19 43v137v34.5t7 63.5q-78 -127 -185.5 -199.5t-214.5 -72.5q-125 0 -196.5 100t-71.5 276zM246 444q0 -354 209 -354q128 1 282 189v559q-100 51 -243 51h-45q-203 -156 -203 -445z" />
<glyph unicode="e" horiz-adv-x="870" d="M76 422q0 219 141 383t330 164q117 0 191.5 -83t74.5 -210q0 -41 -8 -56.5t-49 -31t-101.5 -25.5t-119.5 -10h-302l-2 -76q0 -178 88.5 -291.5t227.5 -113.5q106 0 159.5 35.5t67.5 39.5l12 -12q0 -6 -20.5 -20.5t-87 -53t-124.5 -57t-122 -18.5q-164 0 -260 118.5 t-96 317.5zM246 629h420q0 270 -226 270l-34 -2q-68 -55 -104 -116.5t-56 -151.5z" />
<glyph unicode="f" horiz-adv-x="600" d="M35 901l14 4l144 51v93q0 197 143 346t336 149q84 0 84 -35q-4 -10 -11 -14l-16 -14l-70 -51q-23 -16 -28.5 -19.5t-12.5 -5.5q-14 0 -14 20q0 8 -26.5 14.5t-65.5 6.5q-31 0 -82 -14q-41 -49 -57.5 -119t-16.5 -195v-162h326q23 0 23 -12q0 -10 -25 -18l-107 -31 q-41 -12 -71.5 -16.5t-98.5 -4.5h-47v-778q0 -35 11 -35l12 2q10 -12 10 -20q0 -10 -18 -16l-150 -45l-14 -2q-14 0 -14 32v862h-148q-22 0 -22 12q0 9 12 15z" />
<glyph unicode="g" horiz-adv-x="927" d="M55 -332q0 104 85 190.5t249 143.5q-35 0 -65.5 6t-122.5 35q-111 41 -111 104q0 33 32 59.5t100.5 57.5t98 42t60.5 18q-115 10 -183.5 91t-68.5 206q0 145 102.5 247.5t247.5 102.5q27 0 46.5 -2.5t56.5 -12.5h387q8 0 14 -6q-8 -12 -12 -12l-101 -39q-37 -12 -59 -12 q-43 0 -89 4t-79 10q164 -63 164 -252q0 -152 -106.5 -248t-274.5 -96l-23 2q-147 -41 -147 -106q0 -43 43 -57.5t103.5 -32t64.5 -17.5l43 -12l43 -10l45 -11q162 -39 227.5 -100t65.5 -174q0 -150 -154.5 -261.5t-361.5 -111.5q-147 0 -233.5 67.5t-86.5 186.5zM201 -287 q0 -237 306 -237h3h35q23 4 39 6q145 94 145 239q0 104 -71.5 166t-233.5 93q-104 -27 -163.5 -97.5t-59.5 -169.5zM287 670q0 -145 67.5 -227.5t188.5 -82.5l24 2q82 111 82 252q0 137 -67.5 219t-182.5 82h-24q-88 -96 -88 -245z" />
<glyph unicode="h" horiz-adv-x="1087" d="M39 1438q0 10 29 22l202 80l33 10q18 0 19 -41v-637q0 -106 -13 -174q90 121 201 197t197 76q102 0 148 -59.5t46 -192.5v-582q0 -71 46 -71h1l27 4l22 6l15 4l10 -10q0 -12 -29 -23l-135 -45q-39 -12 -46 -14t-26 -2q-33 0 -41 19.5t-8 98.5v596q0 88 -26.5 123 t-96.5 35q-151 0 -292 -180v-582q0 -35 10 -35l12 2q10 -12 10 -20q0 -10 -18 -16l-150 -45l-14 -2q-14 0 -14 20v1364q0 47 -8.5 63.5t-34.5 16.5q-14 0 -52 -14l-12 -5z" />
<glyph unicode="i" horiz-adv-x="534" d="M66 864q0 10 28 23l203 80l33 10q12 0 15 -8t3 -37v-795q0 -71 46 -71h1l27 4l22 6l15 4l10 -10q0 -12 -29 -23l-135 -45q-39 -12 -46 -14t-26 -2q-33 0 -41 19t-8 99v687q0 47 -8 63t-35 16q-14 0 -51 -14l-12 -4zM131 1309q1 18 21 26l135 58l20 8q4 0 8 -6t7 -9 l-9 -20l-2 -12q0 -23 20.5 -39.5t47.5 -16.5l35 7l14 4q10 -10 10 -15q-8 -12 -18 -14l-82 -31q-60 -22 -97 -22h-3q-41 0 -74 24.5t-33 57.5z" />
<glyph unicode="j" horiz-adv-x="548" d="M-203 -557q0 10 19 25l100 75l18 8l13 -4l6 -12l-2 -8q6 -4 16 -7t21 -5l57 -4q45 0 82 12q41 51 57.5 137t16.5 262v869q0 47 -8.5 63t-34.5 16q-14 0 -52 -14l-12 -4l-12 12q0 10 29 23l202 80l33 10q12 0 15.5 -8t3.5 -37v-989q0 -156 -47.5 -256.5t-170 -187.5 t-260.5 -87q-90 0 -90 31zM139 1309q0 14 23 26l135 58l20 8q14 0 15 -15q-4 -10 -10 -20l-3 -12q0 -23 20.5 -39.5t49.5 -16.5l35 7l14 4q10 -10 11 -15q-8 -10 -19 -14l-82 -31q-65 -22 -99 -22h-3q-41 0 -74 24.5t-33 57.5z" />
<glyph unicode="k" horiz-adv-x="929" d="M39 1438q0 10 29 20l202 82l33 10q18 0 19 -41v-1413q0 -35 10 -35l12 2q10 -12 10 -20q0 -10 -18 -16l-150 -45l-14 -2q-14 0 -14 53v1329q0 47 -9.5 64.5t-33.5 17.5q-14 0 -52 -14l-12 -5zM346 506l256 274l45 51q35 43 35 50q0 10 -12 10q-10 10 -11 14q0 10 19 17 l121 41l47 14l8 -6l4 -6q0 -25 -35 -56l-18 -22l-19 -21l-20 -20l-270 -275q8 -8 15 -19t32 -46l215 -334q47 -76 61.5 -90t36.5 -14q20 0 49 12q4 4 9.5 5t11.5 3q10 -10 10 -14q0 -8 -16 -17l-134 -53q-39 -14 -75 -18q-25 0 -43.5 15t-46.5 62z" />
<glyph unicode="l" horiz-adv-x="505" d="M39 1438q0 10 29 20l202 82l33 10q18 0 19 -41v-1372q0 -71 46 -71h1l26 4l23 6l14 4l10 -10q0 -14 -14 -17l-14 -6l-135 -45q-39 -12 -46.5 -14t-25.5 -2q-33 0 -41 19t-8 99v1258q0 47 -9.5 64.5t-33.5 17.5q-14 0 -52 -14l-12 -5z" />
<glyph unicode="m" horiz-adv-x="1691" d="M66 868q0 10 26 23l193 74q25 8 41 12q16 0 16 -43v-176l-6 -64q213 276 412 277q174 0 174 -187q0 -45 -11 -96q98 135 204 209t206 74q184 0 184 -226v-608q0 -71 46 -71h1l27 4l23 6l14 4l10 -10q0 -12 -29 -23l-135 -45q-39 -12 -46 -14t-25 -2q-33 0 -41.5 19.5 t-8.5 98.5v590q0 90 -26.5 127t-91.5 37q-76 0 -138.5 -39t-156.5 -145v-578q0 -35 10 -35l12 2q10 -12 11 -20q-10 -12 -19 -14l-149 -45l-15 -4q-14 0 -14 32v688q0 158 -117 158q-76 0 -138.5 -39t-160.5 -145v-578q0 -35 10 -35l13 2q10 -12 10 -20q0 -10 -19 -16 l-147 -45l-16 -2q-14 0 -15 32v764q0 63 -6 80.5t-33 17.5q-4 0 -17 -3t-38 -11l-14 -4q-10 8 -10 12z" />
<glyph unicode="n" horiz-adv-x="1114" d="M66 868q0 10 26 23l193 74q25 8 41 12q16 0 16 -43v-166q0 -41 -8 -74q217 276 405 277q98 0 143.5 -57.5t45.5 -184.5v-592q0 -71 46 -71h1l26 4l23 6l14 4l11 -10q0 -12 -29 -23l-135 -45q-39 -12 -46.5 -14t-25.5 -2q-33 0 -41 19.5t-8 98.5v584q0 98 -25.5 134 t-97.5 36t-147.5 -47t-145.5 -137v-578q0 -35 10 -35l13 2q10 -12 10 -20q0 -10 -19 -16l-147 -45l-16 -2q-14 0 -15 32v764q0 63 -6 80.5t-33 17.5q-4 0 -17 -3t-38 -11l-14 -4q-10 8 -10 12z" />
<glyph unicode="o" horiz-adv-x="1050" d="M78 408q0 242 157 402.5t390 160.5q154 0 251 -118t97 -306q0 -242 -155.5 -401.5t-393.5 -159.5q-154 0 -250 116.5t-96 305.5zM333 187.5q91 -121.5 226 -121.5q31 0 88 10q164 129 164 385q0 182 -92 306t-230 124l-88 -8q-159 -138 -159 -393q0 -181 91 -302.5z" />
<glyph unicode="p" horiz-adv-x="1085" d="M66 864q0 10 28 23l197 80l33 10q12 0 15 -8t3 -37v-135v-52q-4 -31 -6 -47q78 127 185.5 200t213.5 73q125 0 197 -100.5t72 -276.5q0 -256 -166 -432t-410 -176q-37 0 -80 8v-473q0 -33 10 -33h13q10 -12 10 -18q0 -10 -19 -17l-147 -45l-16 -2q-14 0 -15 31v1354 q0 47 -8 63t-35 16q-14 0 -51 -14l-12 -4zM348 119q100 -51 244 -51h45q203 156 203 444q0 354 -209 354q-129 0 -283 -188v-559z" />
<glyph unicode="q" horiz-adv-x="1075" d="M82 367q0 248 170 426t405 178q57 0 101.5 -8.5t101.5 -28.5l43 22v-1435q0 -33 10 -33h13q12 0 12 -18q0 -8 -20 -17l-148 -45l-14 -2q-14 0 -15 31v647q0 63 2 94t11 80q-125 -160 -206 -216t-186 -56q-135 0 -207.5 99t-72.5 282zM248 436q0 -164 53 -255t150 -91 q78 0 127.5 32t162.5 157v557q-57 29 -113.5 41t-142.5 12l-32 -2q-106 -88 -155.5 -194.5t-49.5 -256.5z" />
<glyph unicode="r" horiz-adv-x="741" d="M63 870q0 8 29 21l193 74q25 8 41 12q16 0 16 -43v-168l-4 -86q68 137 151.5 216t159.5 79q86 0 86 -45q-4 -20 -8 -25l-57 -106q-8 -16 -19 -17q-20 0 -20 15v8q0 20 -58 20q-125 0 -225 -166v-563q0 -35 10 -35h13q10 -10 10 -16q0 -12 -19 -18l-147 -45l-16 -2 q-14 0 -15 32v764q0 61 -7 79.5t-32 18.5q-16 0 -57 -16l-12 -2q-12 0 -13 14z" />
<glyph unicode="s" horiz-adv-x="735" d="M47 47q2 4 4 9t8 10l107 57l16 6q12 -10 13 -14v-9q0 -18 52 -30.5t128 -12.5l57 3q63 70 64 143q0 66 -37 108.5t-161 122.5t-172 136.5t-48 125.5q0 115 117.5 192t291.5 77q80 0 129.5 -17.5t49.5 -46.5q0 -12 -13 -18l-106 -51q-4 -2 -8 -3t-9 -4l-12 13l2 10 q0 16 -51 29.5t-119 13.5l-53 -2q-57 -57 -57 -131q0 -61 44 -109.5t171 -126t164.5 -124t37.5 -121.5q0 -129 -120.5 -213t-311.5 -84q-80 0 -129 17t-49 44z" />
<glyph unicode="t" horiz-adv-x="659" d="M63 885q0 8 77 46t138.5 120t67.5 85l10 5q10 0 11 -25v-160h360q23 0 23 -10q0 -16 -37 -24l-92 -27q-74 -20 -150 -21h-104v-612q0 -98 24.5 -140t83.5 -42q47 0 86 15.5t127 70.5q6 6 12.5 7t8.5 3l8 -6l4 -8q-8 -12 -121 -93t-240 -81q-86 0 -121.5 54t-35.5 179v653 h-123q-16 0 -17 11z" />
<glyph unicode="u" horiz-adv-x="1112" d="M66 864q0 10 28 23l203 80l33 10q18 0 18 -41v-680q0 -158 117 -158q141 1 297 185v508q0 49 -8.5 64t-36.5 15q-12 0 -51 -14l-13 -4l-12 12q0 6 3 10t28 13l202 80l33 10q18 0 19 -41v-770q0 -47 8 -63.5t35 -16.5q14 0 51 14l12 4l12 -12q0 -10 -28 -22l-203 -80 l-33 -10q-18 0 -18 34l6 166v36.5t6 45.5q-57 -80 -137 -151.5t-139.5 -98t-126.5 -26.5q-100 0 -143.5 53t-43.5 182v570q0 47 -8 63t-35 16q-14 0 -51 -14l-12 -4z" />
<glyph unicode="v" horiz-adv-x="878" d="M-6 895q0 10 24 20l103 39l33 13l43 10q29 -1 47 -62l141 -444l94 -330q6 29 13.5 56.5t27.5 89.5l62 172l123 334q26 64 26 86t-14 22l-10 -2l-11 12q0 12 21 19l108 41l9 2l14 4q12 0 12 -16q-2 -12 -4 -20.5t-25 -61.5l-264 -693q-39 -104 -56 -129.5t-61 -51 t-63 -25.5q-12 0 -19.5 17t-13.5 36l-260 794q-14 47 -20 56.5t-25 9.5l-29 -6l-14 -4q-12 0 -12 12z" />
<glyph unicode="w" horiz-adv-x="1445" d="M-6 897q10 12 22 16l113 45q47 18 66 19q33 -1 49 -62l155 -538q12 -49 28.5 -115.5t27.5 -134.5q8 49 25.5 105.5t47.5 144.5l170 489q-10 31 -28 31l-39 -10l-15 -2l-10 12q10 12 23 16l114 45q43 18 66 19q20 0 39 -53l135 -473q51 -180 72 -316q6 35 9 46.5t26 78.5 l28 88l29 86l125 359q14 43 19 60t5 28q0 20 -14 20l-10 -2l-10 12q0 12 20 19l111 41l8 2l14 4q12 -10 12 -14q0 -12 -6 -30l-18 -54l-270 -744q-20 -57 -37 -79.5t-63 -49t-68 -26.5q-14 0 -27 43l-133 464l-33 119q-4 20 -18.5 83t-18.5 87q-8 -57 -24 -117l-41 -129 l-142 -395q-20 -55 -35.5 -76.5t-62.5 -50t-70 -28.5q-14 0 -26 43l-250 843q-8 31 -27 31q-8 0 -39 -10l-14 -2z" />
<glyph unicode="x" horiz-adv-x="858" d="M18 895q10 12 17 14l133 52q45 16 68 16q16 0 26 -10.5t33 -53.5l104 -194q18 -35 31.5 -65.5t24.5 -61.5q10 18 25.5 45t37.5 61l74 109q25 43 36 63.5t11 28.5l-10 10h-8l-11 11q0 10 19 14l106 35l31 8l12 -12q0 -8 -24 -47l-13 -19l-10 -16l-12 -19l-223 -332 l192 -376q25 -45 43.5 -73t32.5 -28q25 0 53 15l14 6l13 -13q0 -10 -25 -22l-133 -49q-31 -12 -57 -12q-18 0 -30.5 12t-31.5 51l-106 213q-16 33 -33.5 73t-32.5 79q-12 -27 -25.5 -51.5t-50.5 -82.5l-83 -133q-18 -31 -30.5 -52t-12.5 -30l6 -8h8l10 -10q0 -12 -14 -18 l-111 -37l-29 -6l-10 12q0 16 19.5 46t44.5 66l239 355l-176 338q-47 86 -54 95t-26 9q-20 0 -59 -16l-12 -2z" />
<glyph unicode="y" horiz-adv-x="894" d="M-168 -518l76 65q8 6 14 8.5t10 4.5q16 0 17 -15v-12q0 -25 98 -25q63 0 133 15q39 41 66.5 88t60.5 126t50.5 127t29.5 89l-289 870q-14 47 -21 57.5t-24 8.5l-28 -6l-15 -4q-6 0 -8 4l-4 8q0 12 25 18l108 39l33 15l43 10q16 0 26.5 -12.5t22.5 -49.5l160 -512l12 -39 q20 -66 35.5 -116.5t21.5 -93.5q14 61 37 123.5t58 156.5l137 363q6 20 15 50.5t9 37.5q0 20 -14 20l-10 -2q-10 10 -10 14q0 10 20 19l113 39l22 6q14 0 15 -16q0 -10 -4.5 -21.5t-10.5 -28.5l-364 -958l-60 -154q-82 -186 -215 -286.5t-297 -100.5q-110 0 -110 42 q0 13 16 28z" />
<glyph unicode="z" horiz-adv-x="794" d="M47 10l8 23l402 741q23 41 37 67.5t32 47.5q-20 -4 -44.5 -6t-63.5 -2h-340q-18 0 -19 10q8 10 17 12l114 37q29 8 62 12t78 4h368q23 0 23 -10l-6 -18l-398 -727q-35 -66 -47 -86.5t-28 -42.5q23 2 40 3t40 1h32h199q119 0 180 20l19 2l8 -12q0 -8 -35 -23l-107 -36 q-47 -14 -89 -20.5t-111 -6.5h-357q-8 0 -11 4t-3 6z" />
<glyph unicode="{" horiz-adv-x="763" d="M55 532q94 59 131 119t37 156v92v264q0 121 8.5 165t54.5 102.5t185 58.5h217q20 0 34.5 -1t14.5 -11q0 -6 -11 -13.5t-46 -19.5t-57.5 -15.5t-71.5 -3.5q-115 0 -146.5 -33.5t-31.5 -154.5v-258v-59v-41q0 -66 -2 -77t-19.5 -63.5t-60.5 -97.5t-123 -84 q68 -18 98.5 -38.5t68.5 -75t38 -142.5v-178v-219q0 -102 35.5 -140t132.5 -38h135q45 0 45 -15q0 -20 -45 -31.5t-93 -17.5t-96 -6h-53q-113 0 -162 49t-49 166v172v55l-2 164q0 111 -38 171.5t-128 98.5z" />
<glyph unicode="|" horiz-adv-x="1024" d="M459 -342v1708h108v-1708h-108z" />
<glyph unicode="}" horiz-adv-x="763" d="M27 -332q0 6 11 13.5t46 19.5t57.5 15t71.5 3q115 0 146.5 34t31.5 155v258q0 135 2 162.5t19.5 79t60.5 96.5t123 84q-68 18 -98.5 38.5t-68.5 75t-38 142.5v178v219q0 102 -36 140t-132 38h-135q-45 0 -45 15q0 20 45 31.5t93 17.5t95 6h54q113 0 162 -49t49 -166v-172 l2 -219q0 -111 37.5 -171.5t128.5 -99.5q-94 -59 -131 -118.5t-37 -155.5v-92v-264q0 -121 -8.5 -165t-54.5 -102.5t-185 -58.5h-217q-20 0 -34.5 1t-14.5 11z" />
<glyph unicode="~" horiz-adv-x="1366" d="M252 1276q57 94 130 145.5t148 51.5q39 0 72 -8.5t105.5 -33t108.5 -32.5t65 -8q112 -1 204 112l29 -18q-49 -86 -127 -141.5t-149 -55.5q-35 0 -71 10.5t-95.5 31t-112.5 33.5t-90 13q-57 0 -89 -19.5t-99 -99.5z" />
<glyph unicode="&#xa1;" horiz-adv-x="643" d="M190 829q0 33 18.5 66t45.5 45l92 41l21 6l8 -8q-4 -12 -11.5 -27.5t-7.5 -38.5q0 -25 10.5 -43t26.5 -18q10 0 13.5 -4t5.5 -6q-7 -13 -11 -13l-118 -51q-25 -12 -41 -12q-51 0 -52 63zM207 -389v833q0 66 8 87.5t45 48.5l88 65l12 -6v-883q0 -47 8.5 -63.5t34.5 -16.5 q20 0 52 15l12 4l12 -12q0 -6 -3 -9.5t-25 -13.5l-193 -80l-33 -10q-18 0 -18 41z" />
<glyph unicode="&#xa2;" d="M152 686q0 184 105 320.5t286 183.5v96q0 33 8 53l24 62q4 12 15 12q10 0 10 -14v-197q80 12 135 12q188 0 189 -57q0 -14 -17 -22l-131 -64l-10 -4q-10 4 -12 8l-4 10l2 9l2 6q2 12 -44.5 24.5t-109.5 12.5v-787l51 -2q100 0 223 78l17 6l10 -12q0 -8 -18.5 -22.5 t-99.5 -63.5t-183 -68v-139v-27q0 -8 -8 -26l-25 -62q-4 -12 -14 -12t-10 14v246q-182 0 -286.5 114.5t-104.5 311.5zM317 760q0 -317 226 -395v772l-8 -2l-54 -2q-74 -63 -119 -166t-45 -207z" />
<glyph unicode="&#xa3;" d="M51 8v6q4 6 111.5 61.5t107.5 289.5v321h-135q-14 0 -14 10q6 10 14 15l135 57v121q0 217 148.5 353t386.5 136q45 0 75.5 -12t30.5 -33q0 -12 -16 -20l-104 -62l-23 -8q-14 0 -14 17l2 6l2 6q0 10 -39 18t-86 8l-60 -2q-139 -106 -139 -348v-180h404q6 0 9 -3l5 -5 q0 -12 -25 -19l-98 -36q-31 -10 -52.5 -14.5t-53.5 -4.5h-189v-287q0 -119 -59.5 -200.5t-169.5 -114.5q51 8 115.5 10t138.5 2h307q49 0 102.5 4t73.5 11l16 4q8 -6 9 -11q-8 -12 -17 -14l-123 -41q-141 -49 -206 -49h-558z" />
<glyph unicode="&#xa4;" horiz-adv-x="1132" d="M96 274q2 8 6 11l187 186q-84 106 -84 229q0 121 80 228l-183 180l-6 10l10 10l29 -10l84 -41q18 -8 35.5 -21.5t40.5 -35.5l41 -41q104 82 227 82q70 0 120 -18.5t112 -65.5l43 43q45 45 75 57l91 43l22 8l10 -10l-6 -10l-184 -184q76 -102 76 -224q0 -123 -82 -225 l190 -190l6 -9l-10 -10q-18 4 -22 8l-91 41q-31 14 -75 60l-50 49q-109 -80 -225 -80q-119 0 -221 76l-47 -45q-37 -39 -76 -58l-90 -43q-6 -4 -12 -5t-13 -3zM313 700q0 -102 73 -174.5t177 -72.5t177 72.5t73 174.5q0 104 -72 178t-178 74q-104 0 -177 -72.5t-73 -179.5z " />
<glyph unicode="&#xa5;" d="M-10 1311q0 10 22 18l117 43l41 10q18 0 27.5 -11t54.5 -91l211 -403l43 -80q31 -51 45 -95q10 27 17 44.5t32 58.5l49 86l170 307q39 68 39 94q0 6 -4 9.5t-6 5.5l-6 -2q-14 8 -15 12q0 14 23 20l121 41l28 8q12 0 13 -14q0 -12 -10.5 -31.5t-28.5 -48.5l-318 -534h252 q6 0 9.5 -3t5.5 -5q-10 -12 -23 -17l-74 -33q-27 -10 -88 -10h-123l-28 -49v-129h321q6 0 9.5 -3t5.5 -5q-10 -12 -23 -17l-74 -32q-27 -10 -88 -11h-151v-290q0 -39 1 -62.5t11 -23.5l14 2l13 -13q0 -8 -21 -18l-125 -51l-24 -8q-18 0 -19 26v438h-354q-8 0 -14 9 q10 10 28 18l68 29q35 12 88 12h184v90l-45 88h-309q-8 0 -14 8q10 10 28 19l68 28q35 12 88 13h102l-254 493q-23 43 -27.5 50.5t-23.5 7.5q-12 0 -39 -9l-10 -2z" />
<glyph unicode="&#xa6;" horiz-adv-x="1024" d="M459 313h108v-655h-108v655zM459 682v684h108v-684h-108z" />
<glyph unicode="&#xa7;" horiz-adv-x="1091" d="M96 449q0 186 357 301q-156 66 -215.5 124t-59.5 152q0 152 144.5 256t355.5 104q94 0 160.5 -18t66.5 -45q0 -16 -18 -27l-115 -67l-22 -6q-20 0 -21 20v8q-4 18 -67.5 35t-135.5 17h-42t-48 -7q-94 -82 -94 -190q0 -92 63.5 -153.5t218 -128t194.5 -87t99.5 -62.5 t59.5 -132q0 -70 -41 -121t-107.5 -88t-116.5 -58.5t-87 -29.5q281 -113 280 -293q0 -156 -152.5 -262.5t-377.5 -106.5q-90 0 -166 24.5t-76 55.5q0 17 31 33l96 55l21 6q18 0 18 -18l-2 -6l-4 -6q0 -12 68.5 -37t183.5 -25q51 0 102 8q96 90 96 220q0 102 -51 141 t-95 61.5t-213 97t-228.5 124t-59.5 131.5zM256 508q0 -78 55.5 -120t276.5 -128q106 29 166.5 87.5t60.5 133.5q0 76 -57.5 120t-268.5 132q-106 -33 -169.5 -93t-63.5 -132z" />
<glyph unicode="&#xa8;" horiz-adv-x="1024" d="M182 1294q0 21 23 29l129 55l18 6q12 -10 13 -14l-7 -14l-6 -21q0 -20 16.5 -34.5t43.5 -14.5q20 0 45 8l10 2q12 -10 12 -14q-10 -10 -18 -14l-84 -29q-37 -12 -56.5 -16t-33.5 -4q-45 0 -75 21.5t-30 53.5zM557 1294q1 21 21 29l131 55l18 6q12 -10 12 -14l-6 -14 l-6 -21q0 -49 57 -49q20 0 45 8l11 2q12 -10 12 -14q-8 -12 -16 -14l-84 -29q-37 -12 -56.5 -16t-33.5 -4q-45 0 -75 21.5t-30 53.5z" />
<glyph unicode="&#xa9;" horiz-adv-x="1589" d="M82 684q0 289 209 495.5t504 206.5q297 0 504.5 -205.5t207.5 -496.5t-208.5 -497.5t-503.5 -206.5q-297 0 -505 205.5t-208 498.5zM158 684q0 -268 186 -456.5t449 -188.5q262 0 448 188.5t186 456.5q0 266 -186 454.5t-448 188.5t-448.5 -188.5t-186.5 -454.5zM391 676 q0 178 135.5 299t335.5 121q68 0 108 -12.5t40 -34.5q-2 -4 -4 -10.5t-9 -8.5l-59 -33l-12 -6q-4 0 -10.5 6.5l-8.5 8.5v10q-4 0 -20.5 5t-40 12t-82.5 7l-62 -4q-193 -104 -192 -331q0 -156 84 -252.5t221 -96.5q96 0 170 29l8 2q12 -10 13 -14q0 -8 -27 -23 q-57 -23 -120.5 -37t-117.5 -14q-158 0 -254 102.5t-96 274.5z" />
<glyph unicode="&#xaa;" horiz-adv-x="673" d="M55 616q10 10 29 19l68 29q35 12 88 12h362q6 0 9 -3l5 -5q-10 -12 -22 -17l-74 -33q-27 -10 -88 -10h-362q-8 0 -15 8zM119 930q0 80 63.5 128t206.5 77v96q0 55 -14.5 73.5t-59.5 18.5l-32 -2q-41 -27 -48.5 -55.5t-32 -43t-50.5 -14.5q-12 10 -13 15q0 14 14.5 35.5 t47 48t87 47t105.5 20.5q55 0 78 -26.5t23 -96.5v-329q0 -51 24 -52q20 0 49 11l8 2l13 -13q-10 -12 -19 -16l-86 -33l-45 -8q-45 0 -45 70v28q-76 -98 -160 -98q-115 0 -114 117zM221 954q0 -76 64 -75q49 0 104 63v166q-168 -29 -168 -154z" />
<glyph unicode="&#xab;" horiz-adv-x="1052" d="M76 498l321 299q18 18 32.5 28.5t57.5 34.5l58 35l6 2l12 -12l-4 -6l-334 -301q-8 -10 -35 -23q12 -6 20.5 -13t20.5 -18l324 -293q-2 -12 -6 -12l-70 -35q-29 -12 -37 -12q-14 0 -25 9t-26 22zM485 498l322 299q18 18 32.5 28.5t57.5 34.5l57 35l7 2l12 -12l-4 -6 l-334 -301q-8 -10 -35 -23q12 -6 20.5 -13t20.5 -18l324 -293q-2 -12 -7 -12l-69 -35q-29 -12 -37 -12q-14 0 -25.5 9t-25.5 22z" />
<glyph unicode="&#xac;" horiz-adv-x="1024" d="M74 465v82h878v-547h-188v465h-690z" />
<glyph unicode="&#xad;" horiz-adv-x="638" d="M0 471q0 10 35 23l96 32q50 17 107 17h385q16 0 16 -11q0 -10 -27 -20l-104 -37q-25 -10 -42 -12t-65 -2h-385q-16 0 -16 10z" />
<glyph unicode="&#xae;" horiz-adv-x="1589" d="M82 684q0 289 209 495.5t504 206.5q297 0 504.5 -205.5t207.5 -496.5t-208.5 -497.5t-503.5 -206.5q-297 0 -505 205.5t-208 498.5zM158 684q0 -268 186 -456.5t449 -188.5q262 0 448 188.5t186 456.5q0 266 -186 454.5t-448 188.5t-448.5 -188.5t-186.5 -454.5z M502 1047q0 10 14 12l59 14q72 18 173 19q268 0 268 -172q0 -129 -152 -193l17 -25l182 -274q23 -37 37 -51.5t24 -14.5l15 3q10 0 16 -7q0 -4 2 -6q0 -10 -20 -18l-64 -21l-41 -8q-20 0 -31.5 10.5t-39.5 57.5l-218 334l9 10q86 27 119.5 62.5t33.5 105.5q0 156 -203 155 h-20v-678l8 3q14 0 15 -15q0 -10 -17 -16l-84 -29l-16 -4q-18 0 -19 21v712h-28h-33q-6 2 -6 13z" />
<glyph unicode="&#xaf;" horiz-adv-x="1024" d="M195 1268q6 8 13 13t15 7l86 29q20 6 49 10t68 4h387q8 0 16 -8q-14 -14 -24 -18l-90 -33q-23 -8 -42.5 -10t-74.5 -2h-385q-8 0 -12 3t-6 5z" />
<glyph unicode="&#xb0;" horiz-adv-x="843" d="M137 1100q0 121 82 205t205 84q119 0 202 -83t83 -204q0 -119 -83 -202t-202 -83q-115 0 -201 84t-86 199zM219 1102q0 -82 59.5 -141.5t143.5 -59.5q86 0 145.5 57.5t59.5 143.5q0 84 -59.5 143.5t-145.5 59.5q-84 0 -143.5 -59.5t-59.5 -143.5z" />
<glyph unicode="&#xb1;" d="M76 109q0 10 30 20l89 31q39 14 96 14h629q6 0 9 -3l5 -5q0 -8 -27 -19l-92 -34q-33 -12 -96 -13h-629q-8 0 -14 9zM76 653q0 10 30 21l87 31q39 14 96 14h178v178q0 61 12 94l35 94q10 27 18 27q8 -8 9 -16v-377h377q8 0 14 -8q0 -10 -25 -19l-94 -35q-33 -12 -94 -12 h-178v-178q0 -57 -15 -96l-30 -86q-12 -33 -21 -33q-8 8 -8 16v377h-377q-8 0 -14 8z" />
<glyph unicode="&#xb2;" horiz-adv-x="655" d="M35 561q0 12 30.5 40t101.5 104.5t161 190.5t90 239q0 82 -46 128t-130 46q-39 0 -55.5 -4.5t-61.5 -18.5l-14 -2q-18 0 -19 19q0 12 32 27.5t91 29.5t104 14q102 0 163 -54t61 -151q0 -106 -77 -222t-292 -333h266q78 0 119 13l12 2q14 0 15 -17q0 -12 -13 -16l-88 -33 q-43 -16 -104 -16h-322q-25 0 -24 14z" />
<glyph unicode="&#xb3;" horiz-adv-x="655" d="M102 967q0 10 15 18l69 27q16 8 41 8q172 16 172 156q0 135 -155 135q-55 0 -105 -13l-10 -2q-16 0 -16 15q0 23 67.5 43t141.5 20q92 0 144 -42t52 -118q0 -131 -186 -202q213 -18 213 -195q0 -115 -102.5 -196.5t-245.5 -81.5q-78 0 -78 28q6 15 10 19l45 37 q12 10 21 10q14 0 14 -15q2 -10 20.5 -13t75.5 -3l41 2q80 78 80 172q0 176 -209 176l-82 -2l-14 -2q-18 0 -19 19z" />
<glyph unicode="&#xb4;" horiz-adv-x="1024" d="M395 1100q8 14 31 32.5t76 78t89 114.5t36 80q-6 8 -15 12l-8 13q8 12 14 14l154 65l33 11q14 0 14 -19q0 -80 -178 -226.5t-203.5 -164.5t-36.5 -18z" />
<glyph unicode="&#xb5;" horiz-adv-x="909" d="M-6 -295q0 14 3 46t12 80t20.5 151.5t21.5 205.5q0 70 7.5 206t7.5 177v365h143v-588q0 -156 42 -220.5t144 -64.5q70 0 129.5 39t118.5 125v709h143v-698q0 -94 15.5 -125t64.5 -31q27 -1 64 22v-32l-166 -92l-8 -3q-76 0 -99 136l-6 37q-111 -106 -174 -143.5 t-137 -37.5q-174 0 -229 181v-50q0 -88 2 -113.5t24 -176.5l8 -99q0 -45 -21.5 -72.5t-55.5 -27.5q-33 0 -53.5 26.5t-20.5 67.5z" />
<glyph unicode="&#xb6;" horiz-adv-x="1075" d="M82 993q0 252 137 302.5t191.5 60.5t115.5 10h62l30 2l179 6l49 4q20 0 20 -37v-1611q0 -45 13 -45l6 2h8l12 -13q0 -10 -20 -18l-82 -31l-31 -8q-14 0 -14 27v1659l-160 -5v-1568q0 -45 12 -45l6 2h9l12 -13q0 -12 -21 -18l-81 -31l-31 -8q-15 0 -15 27v997 q-106 0 -148 6t-105.5 39t-108.5 115t-45 192z" />
<glyph unicode="&#xb7;" horiz-adv-x="450" d="M111 512q6 12 10 12l125 56l41 12q51 0 51 -66q0 -33 -18.5 -67.5t-43.5 -44.5l-100 -45l-20 -9l-9 9l3 12q8 16 8 51q0 68 -29 68h-8q-10 8 -10 12z" />
<glyph unicode="&#xb8;" horiz-adv-x="1024" d="M446 -188q9 12 15 16l57 31q16 10 31 10q31 0 86 -41t55 -92q0 -49 -51 -76l-92 -57l-19 -9l-10 13q0 2 3 7t25.5 19.5t22.5 44.5q0 35 -23.5 60.5t-58 44t-38 23t-3.5 6.5z" />
<glyph unicode="&#xb9;" horiz-adv-x="655" d="M133 1257q0 12 12 17l217 98l21 6q18 0 18 -37v-723q0 -14 8.5 -18t10.5 -9t2 -7q0 -14 -19 -21l-86 -26l-12 -2q-18 0 -18 28v731l-121 -53l-12 -4q-20 0 -21 20z" />
<glyph unicode="&#xba;" horiz-adv-x="673" d="M55 616q10 10 29 19l68 29q35 12 88 12h362q6 0 9 -3l5 -5q-10 -12 -22 -17l-74 -33q-27 -10 -88 -10h-362q-8 0 -15 8zM76 1055q0 137 89 228t222 91q94 0 151.5 -65.5t57.5 -175.5q0 -139 -90 -229.5t-227 -90.5q-92 0 -147.5 65.5t-55.5 176.5zM180 1100 q0 -98 50.5 -165t123.5 -67l49 4q88 70 89 211q0 100 -51.5 168t-125.5 68l-47 -6q-88 -74 -88 -213z" />
<glyph unicode="&#xbb;" horiz-adv-x="1052" d="M80 129l4 6l332 301q16 14 37 23q-12 6 -20.5 12t-20.5 18l-324 291l-2 6q4 8 8 9l70 34q25 12 37 13q14 0 20 -3t31 -30l315 -295l-321 -297q-23 -23 -33 -30t-57 -35l-58 -35q-8 0 -18 12zM489 129l5 6l331 301q16 14 37 23q-12 6 -20 12t-21 18l-323 291l-2 6q4 8 8 9 l69 34q25 12 37 13q14 0 20.5 -3t31.5 -30l315 -295l-322 -297q-23 -23 -33 -30t-57 -35l-57 -35q-8 0 -19 12z" />
<glyph unicode="&#xbc;" horiz-adv-x="1572" d="M133 1257q0 12 12 17l217 98l21 6q18 0 18 -37v-723q0 -14 8.5 -18t10.5 -9t2 -7q0 -14 -19 -21l-86 -26l-12 -2q-18 0 -18 28v731l-121 -53l-12 -4q-20 0 -21 20zM299 -27l4 9l37 57l750 1216q33 55 43 69.5t53 39.5l33 16q29 16 41 21h2l10 -6q-4 -14 -21 -39 l-772 -1250q-37 -61 -49 -73.5t-55 -34.5l-31 -16q-29 -16 -39 -17zM930 332q0 6 10 22l307 410q29 39 49 45l54 18l16 4q16 0 16 -22v-426h215q16 0 17 -14q0 -12 -15 -17l-83 -26q-33 -10 -62 -11h-72v-223q0 -49 -30 -69l-49 -29l-19 -6q-18 0 -18 37v290h-318 q-18 0 -18 17zM1032 379h236v328z" />
<glyph unicode="&#xbd;" horiz-adv-x="1572" d="M133 1257q0 12 12 17l217 98l21 6q18 0 18 -37v-723q0 -14 8.5 -18t10.5 -9t2 -7q0 -14 -19 -21l-86 -26l-12 -2q-18 0 -18 28v731l-121 -53l-12 -4q-20 0 -21 20zM299 -27l4 9l37 57l750 1216q33 55 43 69.5t53 39.5l33 16q29 16 41 21h2l10 -6q-4 -14 -21 -39 l-772 -1250q-37 -61 -49 -73.5t-55 -34.5l-31 -16q-29 -16 -39 -17zM950 14q0 12 30 39t101.5 105t162.5 191.5t91 238.5q0 82 -46 128t-130 46q-39 0 -55.5 -4t-61.5 -19l-14 -2q-18 0 -18 19q0 12 31.5 27.5t91 29.5t104.5 14q102 0 162.5 -54t60.5 -150 q0 -106 -74.5 -219t-295.5 -336h266q82 0 119 12l12 2q14 0 14 -16q0 -12 -10 -17l-88 -33q-45 -16 -107 -16h-321q-25 0 -25 14z" />
<glyph unicode="&#xbe;" horiz-adv-x="1572" d="M102 967q0 10 15 18l69 27q16 8 41 8q172 16 172 156q0 135 -155 135q-55 0 -105 -13l-10 -2q-16 0 -16 15q0 23 67.5 43t141.5 20q92 0 144 -42t52 -118q0 -131 -186 -202q213 -18 213 -195q0 -115 -102.5 -196.5t-245.5 -81.5q-78 0 -78 28q6 15 10 19l45 37 q12 10 21 10q14 0 14 -15q2 -10 20.5 -13t75.5 -3l41 2q80 78 80 172q0 176 -209 176l-82 -2l-14 -2q-18 0 -19 19zM301 -27l39 66l750 1216q37 57 51 74t47 35l16 8q41 23 49.5 25t10.5 4l10 -6q-6 -14 -23 -39l-770 -1250q-41 -66 -50 -74.5t-54 -33.5l-19 -10 q-29 -14 -38 -18.5t-13 -4.5zM930 332q0 6 10 22l307 410q29 39 49 45l54 18l16 4q16 0 16 -22v-426h215q16 0 17 -14q0 -12 -15 -17l-83 -26q-33 -10 -62 -11h-72v-223q0 -49 -30 -69l-49 -29l-19 -6q-18 0 -18 37v290h-318q-18 0 -18 17zM1032 379h236v328z" />
<glyph unicode="&#xbf;" horiz-adv-x="835" d="M96 -172q0 78 31 135t123 163.5t111.5 154t19.5 157.5v62q0 35 4 43t37 26l110 64l13 -6v-133q0 -96 -20.5 -147.5t-108.5 -159t-121 -172t-33 -136.5q0 -102 65.5 -165.5t170.5 -63.5q135 0 191 35.5t73 40.5l8 -11q0 -6 -13.5 -18t-114.5 -66.5t-251 -54.5 q-139 0 -217 65.5t-78 186.5zM371 829q0 35 18.5 68t42.5 43l92 41l21 6l8 -8l-2 -10q-14 -37 -14 -56q0 -25 10 -43t24 -18h9l10 -10q-4 -13 -8 -13l-119 -51l-43 -12q-49 0 -49 63z" />
<glyph unicode="&#xc0;" horiz-adv-x="1161" d="M-14 -4q2 27 7 41t27 72l33 77l434 1080l15 39q-8 10 -13 10l-14 -2l-8 12q0 10 16 16l111 27l41 8q16 0 27 -30l419 -1207q16 -47 27.5 -60t32.5 -13l24 6l17 -13q0 -8 -27 -18l-127 -41q-27 -10 -36 -12t-17 -2q-16 0 -23.5 9t-21.5 48l-164 483h-471l-125 -331 q-37 -96 -37 -117q0 -6 4 -10.5t6 -4.5l7 3q16 0 16 -15q0 -10 -25 -18l-114 -43l-29 -8q-12 0 -12 14zM305 596q41 6 70 6h311q41 0 70 -6q-21 12 -29 41l-137 399q-41 125 -47 168q-4 -35 -16.5 -74.5t-39.5 -103.5l-151 -389q-10 -29 -31 -41zM311 1700q11 14 19 14 l106 25l19 2q16 0 16 -12l-4 -19q0 -39 60.5 -101.5t109.5 -90t52 -32.5t5 -7l-12 -11q-8 0 -29.5 10.5t-109.5 55.5t-129 67.5t-72 50t-31 48.5z" />
<glyph unicode="&#xc1;" horiz-adv-x="1161" d="M-14 -4q2 27 7 41t27 72l33 77l434 1080l15 39q-8 10 -13 10l-14 -2l-8 12q0 10 16 16l111 27l41 8q16 0 27 -30l419 -1207q16 -47 27.5 -60t32.5 -13l24 6l17 -13q0 -8 -27 -18l-127 -41q-27 -10 -36 -12t-17 -2q-16 0 -23.5 9t-21.5 48l-164 483h-471l-125 -331 q-37 -96 -37 -117q0 -6 4 -10.5t6 -4.5l7 3q16 0 16 -15q0 -10 -25 -18l-114 -43l-29 -8q-12 0 -12 14zM305 596q41 6 70 6h311q41 0 70 -6q-21 12 -29 41l-137 399q-41 125 -47 168q-4 -35 -16.5 -74.5t-39.5 -103.5l-151 -389q-10 -29 -31 -41zM461 1464q6 8 59 38 t125 104l25 36l8 19l-10 27q-1 10 26 16l119 25l35 6q23 0 22 -19q0 -20 -57 -67t-145 -97l-170 -86l-29 -10z" />
<glyph unicode="&#xc2;" horiz-adv-x="1161" d="M-14 -4q2 27 7 41t27 72l33 77l434 1080l15 39q-8 10 -13 10l-14 -2l-8 12q0 10 16 16l111 27l41 8q16 0 27 -30l419 -1207q16 -47 27.5 -60t32.5 -13l24 6l17 -13q0 -8 -27 -18l-127 -41q-27 -10 -36 -12t-17 -2q-16 0 -23.5 9t-21.5 48l-164 483h-471l-125 -331 q-37 -96 -37 -117q0 -6 4 -10.5t6 -4.5l7 3q16 0 16 -15q0 -10 -25 -18l-114 -43l-29 -8q-12 0 -12 14zM289 1497l4 10l246 181q12 8 47 20l57 21l14 4l21 -13l231 -164q10 -10 13.5 -15t5.5 -7q-6 -10 -10 -10l-87 -21h-14q-13 1 -33 17l-166 118q-27 16 -40 35l-23 -20 l-154 -115q-23 -20 -34 -22l-45 -19l-25 -8zM305 596q41 6 70 6h311q41 0 70 -6q-21 12 -29 41l-137 399q-41 125 -47 168q-4 -35 -16.5 -74.5t-39.5 -103.5l-151 -389q-10 -29 -31 -41z" />
<glyph unicode="&#xc3;" horiz-adv-x="1161" d="M-14 -4q2 27 7 41t27 72l33 77l434 1080l15 39q-8 10 -13 10l-14 -2l-8 12q0 10 16 16l111 27l41 8q16 0 27 -30l419 -1207q16 -47 27.5 -60t32.5 -13l24 6l17 -13q0 -8 -27 -18l-127 -41q-27 -10 -36 -12t-17 -2q-16 0 -23.5 9t-21.5 48l-164 483h-471l-125 -331 q-37 -96 -37 -117q0 -6 4 -10.5t6 -4.5l7 3q16 0 16 -15q0 -10 -25 -18l-114 -43l-29 -8q-12 0 -12 14zM233 1538q0 18 49.5 66.5t86.5 68t84 19.5q37 0 57 -5.5t112.5 -46.5t133.5 -41q49 0 125 78l16 13l12 -13q0 -10 -70.5 -80.5t-146.5 -70.5q-35 0 -64.5 8t-117.5 43 t-127 35q-29 0 -60.5 -17.5t-50 -37t-23.5 -23.5t-7 -4zM305 596q41 6 70 6h311q41 0 70 -6q-21 12 -29 41l-137 399q-41 125 -47 168q-4 -35 -16.5 -74.5t-39.5 -103.5l-151 -389q-10 -29 -31 -41z" />
<glyph unicode="&#xc4;" horiz-adv-x="1161" d="M-14 -4q2 27 7 41t27 72l33 77l434 1080l15 39q-8 10 -13 10l-14 -2l-8 12q0 10 16 16l111 27l41 8q16 0 27 -30l419 -1207q16 -47 27.5 -60t32.5 -13l24 6l17 -13q0 -8 -27 -18l-127 -41q-27 -10 -36 -12t-17 -2q-16 0 -23.5 9t-21.5 48l-164 483h-471l-125 -331 q-37 -96 -37 -117q0 -6 4 -10.5t6 -4.5l7 3q16 0 16 -15q0 -10 -25 -18l-114 -43l-29 -8q-12 0 -12 14zM244 1608q-1 20 22 28l137 60l19 6q4 0 8 -6t6 -8q-2 -12 -10 -25l-2 -10q0 -55 65 -56l41 7l15 4l10 -15q-8 -10 -18 -12l-88 -31q-45 -14 -62.5 -18t-38.5 -4 q-45 0 -74.5 23.5t-29.5 56.5zM305 596q41 6 70 6h311q41 0 70 -6q-21 12 -29 41l-137 399q-41 125 -47 168q-4 -35 -16.5 -74.5t-39.5 -103.5l-151 -389q-10 -29 -31 -41zM647 1608q0 20 23 28l137 60l18 6l15 -14q-2 -12 -11 -25l-2 -10q0 -55 66 -56l41 7l14 4l10 -15 q-8 -10 -18 -12l-88 -31q-47 -14 -63.5 -18t-36.5 -4q-45 0 -75 23.5t-30 56.5z" />
<glyph unicode="&#xc5;" horiz-adv-x="1161" d="M-14 -4q2 27 7 41t27 72l33 77l434 1080l15 39q-8 10 -13 10l-14 -2l-8 12q0 10 16 16l111 27l41 8q16 0 27 -30l419 -1207q16 -47 27.5 -60t32.5 -13l24 6l17 -13q0 -8 -27 -18l-127 -41q-27 -10 -36 -12t-17 -2q-16 0 -23.5 9t-21.5 48l-164 483h-471l-125 -331 q-37 -96 -37 -117q0 -6 4 -10.5t6 -4.5l7 3q16 0 16 -15q0 -10 -25 -18l-114 -43l-29 -8q-12 0 -12 14zM305 596q41 6 70 6h311q41 0 70 -6q-21 12 -29 41l-137 399q-41 125 -47 168q-4 -35 -16.5 -74.5t-39.5 -103.5l-151 -389q-10 -29 -31 -41zM373 1597q0 74 74 129.5 t174 55.5q72 0 115.5 -40t43.5 -104q0 -80 -71.5 -137t-173.5 -57q-74 0 -118 42t-44 111zM455 1624q0 -61 43 -98t116 -37l39 4q39 53 39 102q0 61 -41 100.5t-106 39.5q-22 -1 -49 -9q-25 -31 -33 -51t-8 -51z" />
<glyph unicode="&#xc6;" horiz-adv-x="1705" d="M-106 -6q2 18 12 36.5t63 90.5l873 1188q29 37 53 45l96 32l29 7l8 -11v-16h541q12 0 21 -1t7 -9q0 -8 -30 -19l-103 -32q-39 -12 -63.5 -16.5t-54.5 -4.5h-314v-532h512q12 0 21.5 -1t7.5 -10q0 -8 -31 -18l-102 -33q-39 -12 -61.5 -16t-57.5 -4h-289v-588h416 q106 0 178 18l8 2l11 -10q0 -10 -25 -16l-125 -43q-102 -33 -211 -33h-422v602h-418l-284 -401l-78 -115l-8 -23l2 -6l6 -6l12 2l12 -12q0 -14 -22 -21l-139 -38l-33 -9q-18 0 -18 21zM485 678q29 6 45 6h29h303v322l4 108v76q6 35 8 57q-20 -51 -41.5 -84t-76.5 -112 l-191 -275q-27 -39 -42 -58.5t-38 -39.5z" />
<glyph unicode="&#xc7;" horiz-adv-x="1165" d="M88 643q0 315 229.5 526t571.5 211q98 0 169.5 -20.5t71.5 -48.5q0 -14 -16 -25l-102 -59l-19 -6q-18 0 -18 16l2 8l4 8q0 18 -89 36t-175 18l-107 -7q-354 -190 -354 -606q0 -283 121 -421t210 -176t218 -38q164 0 297 54l8 2l10 -13q0 -8 -6 -12t-67.5 -30.5t-170 -51 t-198.5 -24.5q-268 0 -429 179t-161 480zM530 -188q9 12 13 16l59 31q16 10 31 10q31 0 86 -41t55 -92q0 -49 -51 -76l-94 -57l-19 -9l-10 13q2 4 6 9t25.5 19.5t21.5 42.5q0 35 -23.5 60.5t-58 44t-38 23t-3.5 6.5z" />
<glyph unicode="&#xc8;" horiz-adv-x="1036" d="M82 1294q6 8 18 13l101 30q51 16 84.5 22.5t70.5 6.5h535h18.5t8.5 -10q-4 -4 -10.5 -8.5t-20.5 -10.5l-101 -32q-39 -12 -63.5 -16.5t-54.5 -4.5h-297v-528h512q12 0 21 -1t7 -10q0 -8 -30 -18l-103 -33q-39 -12 -63.5 -16t-55.5 -4h-288v-592h377q137 0 200 18l13 2 q12 -8 12 -12q-8 -12 -17 -14l-32 -10l-103 -31q-123 -35 -211 -35h-409v1284h-105q-14 0 -14 10zM246 1700q10 14 18 14l107 25l18 2q16 0 17 -12l-5 -19q0 -39 60.5 -101.5t110 -90t52.5 -32.5t5 -7l-13 -11q-8 0 -29.5 10.5t-109.5 55.5t-129 67.5t-71.5 50t-30.5 48.5z " />
<glyph unicode="&#xc9;" horiz-adv-x="1036" d="M82 1294q6 8 18 13l101 30q51 16 84.5 22.5t70.5 6.5h535h18.5t8.5 -10q-4 -4 -10.5 -8.5t-20.5 -10.5l-101 -32q-39 -12 -63.5 -16.5t-54.5 -4.5h-297v-528h512q12 0 21 -1t7 -10q0 -8 -30 -18l-103 -33q-39 -12 -63.5 -16t-55.5 -4h-288v-592h377q137 0 200 18l13 2 q12 -8 12 -12q-8 -12 -17 -14l-32 -10l-103 -31q-123 -35 -211 -35h-409v1284h-105q-14 0 -14 10zM395 1464q6 8 59.5 38t125.5 104l24 36l8 19l-10 27q0 10 27 16l119 25l34 6q23 0 23 -19q0 -20 -57.5 -67t-145.5 -97l-170 -86l-29 -10z" />
<glyph unicode="&#xca;" horiz-adv-x="1036" d="M82 1294q6 8 18 13l101 30q51 16 84.5 22.5t70.5 6.5h535h18.5t8.5 -10q-4 -4 -10.5 -8.5t-20.5 -10.5l-101 -32q-39 -12 -63.5 -16.5t-54.5 -4.5h-297v-528h512q12 0 21 -1t7 -10q0 -8 -30 -18l-103 -33q-39 -12 -63.5 -16t-55.5 -4h-288v-592h377q137 0 200 18l13 2 q12 -8 12 -12q-8 -12 -17 -14l-32 -10l-103 -31q-123 -35 -211 -35h-409v1284h-105q-14 0 -14 10zM223 1497l4 10l246 181q12 8 47 20l58 21l14 4l20 -13l232 -164q10 -10 13 -15t5 -7q-6 -10 -10 -10l-86 -21h-14q-13 1 -33 17l-166 118q-27 16 -41 35l-23 -20l-153 -115 q-23 -20 -35 -22l-45 -19l-25 -8z" />
<glyph unicode="&#xcb;" horiz-adv-x="1036" d="M82 1294q6 8 18 13l101 30q51 16 84.5 22.5t70.5 6.5h535h18.5t8.5 -10q-4 -4 -10.5 -8.5t-20.5 -10.5l-101 -32q-39 -12 -63.5 -16.5t-54.5 -4.5h-297v-528h512q12 0 21 -1t7 -10q0 -8 -30 -18l-103 -33q-39 -12 -63.5 -16t-55.5 -4h-288v-592h377q137 0 200 18l13 2 q12 -8 12 -12q-8 -12 -17 -14l-32 -10l-103 -31q-123 -35 -211 -35h-409v1284h-105q-14 0 -14 10zM170 1608q0 20 23 28l137 60l18 6q4 0 8 -6t6 -8q-2 -12 -10 -25l-2 -10q0 -55 66 -56l41 7l14 4l10 -15q-8 -10 -18 -12l-88 -31q-45 -14 -62.5 -18t-38.5 -4 q-45 0 -74.5 23.5t-29.5 56.5zM573 1608q0 20 23 28l137 60l19 6l14 -14q-2 -12 -10 -25l-2 -10q0 -55 65 -56l41 7l14 4l11 -15q-8 -10 -19 -12l-88 -31q-47 -14 -63.5 -18t-36.5 -4q-45 0 -75 23.5t-30 56.5z" />
<glyph unicode="&#xcc;" horiz-adv-x="567" d="M16 1700q11 14 19 14l106 25l19 2q16 0 16 -12l-4 -19q0 -39 60.5 -101.5t109.5 -90t52 -32.5t5 -7l-12 -11q-8 0 -29.5 10.5t-109.5 55.5t-129 67.5t-72 50t-31 48.5zM80 1276q8 12 16 14l217 84l41 12q17 1 17 -38v-1194v-61.5t12 -22.5h14q12 -10 13 -15 q-12 -14 -21 -16l-143 -51l-31 -8q-14 0 -14 24v1192q0 80 -54 80l-43 -10l-14 -4q-10 10 -10 14z" />
<glyph unicode="&#xcd;" horiz-adv-x="567" d="M80 1276q8 12 16 14l217 84l41 12q17 1 17 -38v-1194v-61.5t12 -22.5h14q12 -10 13 -15q-12 -14 -21 -16l-143 -51l-31 -8q-14 0 -14 24v1192q0 80 -54 80l-43 -10l-14 -4q-10 10 -10 14zM166 1464q6 8 59.5 38t124.5 104l25 36l8 19l-10 27q-1 10 26 16l119 25l35 6 q23 0 22 -19q0 -20 -57 -67t-145 -97l-170 -86l-29 -10z" />
<glyph unicode="&#xce;" horiz-adv-x="567" d="M-8 1497l4 10l246 181q12 8 47 20l57 21l14 4l21 -13l231 -164q10 -10 13.5 -15t5.5 -7q-6 -10 -10 -10l-86 -21h-15q-13 1 -33 17l-165 118q-27 16 -41 35l-23 -20l-154 -115q-23 -20 -34 -22l-45 -19l-25 -8zM80 1276q8 12 16 14l217 84l41 12q17 1 17 -38v-1194v-61.5 t12 -22.5h14q12 -10 13 -15q-12 -14 -21 -16l-143 -51l-31 -8q-14 0 -14 24v1192q0 80 -54 80l-43 -10l-14 -4q-10 10 -10 14z" />
<glyph unicode="&#xcf;" horiz-adv-x="567" d="M-55 1608q-1 20 22 28l137 60l19 6q4 0 8 -6t6 -8q-2 -12 -10 -25l-2 -10q0 -55 65 -56l41 7l15 4l10 -15q-8 -10 -18 -12l-88 -31q-45 -14 -62.5 -18t-38.5 -4q-45 0 -74.5 23.5t-29.5 56.5zM80 1276q8 12 16 14l217 84l41 12q17 1 17 -38v-1194v-61.5t12 -22.5h14 q12 -10 13 -15q-12 -14 -21 -16l-143 -51l-31 -8q-14 0 -14 24v1192q0 80 -54 80l-43 -10l-14 -4q-10 10 -10 14zM319 1608q0 20 25 28l135 60l21 6l12 -14q-2 -12 -10 -25l-2 -10q0 -55 65 -56l43 7l15 4l10 -15q-8 -8 -19 -12l-90 -31q-41 -14 -60.5 -18t-39.5 -4 q-45 0 -75 23.5t-30 56.5z" />
<glyph unicode="&#xd0;" horiz-adv-x="1376" d="M-53 680q0 10 33 18l96 31q41 14 90 14h35v555h-105q-14 0 -14 11q6 8 18 12l101 20q145 31 354 31q172 0 281.5 -24.5t215 -93t170 -205t64.5 -310.5q0 -455 -331.5 -601t-598.5 -146q-80 0 -155 8v672h-242q-4 0 -7 3zM371 88q129 -12 207 -12q84 0 178 14 q172 82 266 239.5t94 364.5q0 287 -174 446.5t-485 159.5l-86 -2v-555h350q8 0 16 -8q0 -10 -18 -16l-131 -33q-51 -14 -103 -14h-114v-584z" />
<glyph unicode="&#xd1;" horiz-adv-x="1470" d="M100 1305q12 14 25 18l135 49q39 14 51 14q25 2 54 -36l671 -955q53 -76 85 -126t63 -107q-4 41 -6 87t-2 120v868v31q0 41 -2.5 47t-10.5 6l-14 -2l-12 12q0 12 20 19l88 30l8 2l17 4q14 0 14 -45v-757q0 -166 -8 -318.5t-19.5 -180.5t-52.5 -66.5t-63 -38.5 q-14 0 -28 15t-34 46l-628 889q-80 113 -108 158t-56 108q10 -88 16 -188.5t6 -200.5v-678v-61.5t13 -22.5l14 2l12 -12q0 -12 -20 -19l-88 -30l-9 -2l-16 -4q-14 0 -14 45v1255q-14 25 -37 25q-12 0 -39 -11l-14 -4q-10 10 -11 15zM389 1538q0 18 49 66.5t86 68t84 19.5 q37 0 57.5 -5.5t112.5 -46.5t133 -41q49 0 125 78l17 13l12 -13q0 -10 -70.5 -80.5t-146.5 -70.5q-35 0 -64.5 8t-117.5 43t-127 35q-29 0 -61 -17.5t-50 -37t-23.5 -23.5t-7.5 -4z" />
<glyph unicode="&#xd2;" horiz-adv-x="1497" d="M88 653q0 174 76 322.5t256 276.5t420 128q244 0 405.5 -188t161.5 -475q0 -330 -176 -479.5t-306 -200.5t-255 -51q-254 0 -418 186t-164 481zM260 713q0 -281 157.5 -467.5t397.5 -186.5q52 1 111 15q150 76 229.5 227.5t79.5 362.5q0 283 -155.5 463t-401.5 180 q-31 0 -49.5 -2t-53.5 -13q-152 -78 -233.5 -227.5t-81.5 -351.5zM479 1700q11 14 19 14l106 25l19 2q16 0 16 -12l-4 -19q0 -39 60.5 -101.5t109.5 -90t52 -32.5t5 -7l-12 -11q-8 0 -29.5 10.5t-109.5 55.5t-129 67.5t-72 50t-31 48.5z" />
<glyph unicode="&#xd3;" horiz-adv-x="1497" d="M88 653q0 174 76 322.5t256 276.5t420 128q244 0 405.5 -188t161.5 -475q0 -330 -176 -479.5t-306 -200.5t-255 -51q-254 0 -418 186t-164 481zM260 713q0 -281 157.5 -467.5t397.5 -186.5q52 1 111 15q150 76 229.5 227.5t79.5 362.5q0 283 -155.5 463t-401.5 180 q-31 0 -49.5 -2t-53.5 -13q-152 -78 -233.5 -227.5t-81.5 -351.5zM629 1464q6 8 59 38t125 104l25 36l8 19l-10 27q-1 10 26 16l119 25l35 6q23 0 22 -19q0 -20 -57 -67t-145 -97l-170 -86l-29 -10z" />
<glyph unicode="&#xd4;" horiz-adv-x="1497" d="M88 653q0 174 76 322.5t256 276.5t420 128q244 0 405.5 -188t161.5 -475q0 -330 -176 -479.5t-306 -200.5t-255 -51q-254 0 -418 186t-164 481zM260 713q0 -281 157.5 -467.5t397.5 -186.5q52 1 111 15q150 76 229.5 227.5t79.5 362.5q0 283 -155.5 463t-401.5 180 q-31 0 -49.5 -2t-53.5 -13q-152 -78 -233.5 -227.5t-81.5 -351.5zM457 1497l4 10l246 181q12 8 47 20l57 21l14 4l21 -13l231 -164q10 -10 13.5 -15t5.5 -7q-6 -10 -11 -10l-86 -21h-14q-13 1 -33 17l-166 118q-27 16 -41 35l-22 -20l-154 -115q-23 -20 -34 -22l-46 -19 l-24 -8z" />
<glyph unicode="&#xd5;" horiz-adv-x="1497" d="M88 653q0 174 76 322.5t256 276.5t420 128q244 0 405.5 -188t161.5 -475q0 -330 -176 -479.5t-306 -200.5t-255 -51q-254 0 -418 186t-164 481zM260 713q0 -281 157.5 -467.5t397.5 -186.5q52 1 111 15q150 76 229.5 227.5t79.5 362.5q0 283 -155.5 463t-401.5 180 q-31 0 -49.5 -2t-53.5 -13q-152 -78 -233.5 -227.5t-81.5 -351.5zM401 1538q0 18 49.5 66.5t86.5 68t84 19.5q37 0 57 -5.5t112.5 -46.5t133.5 -41q49 0 125 78l16 13l12 -13q0 -10 -70.5 -80.5t-146.5 -70.5q-35 0 -64.5 8t-117.5 43t-127 35q-29 0 -60.5 -17.5t-50 -37 t-23.5 -23.5t-7 -4z" />
<glyph unicode="&#xd6;" horiz-adv-x="1497" d="M88 653q0 174 76 322.5t256 276.5t420 128q244 0 405.5 -188t161.5 -475q0 -330 -176 -479.5t-306 -200.5t-255 -51q-254 0 -418 186t-164 481zM260 713q0 -281 157.5 -467.5t397.5 -186.5q52 1 111 15q150 76 229.5 227.5t79.5 362.5q0 283 -155.5 463t-401.5 180 q-31 0 -49.5 -2t-53.5 -13q-152 -78 -233.5 -227.5t-81.5 -351.5zM410 1608q-1 20 22 28l137 60l19 6q4 0 8 -6t6 -8q-2 -12 -10 -25l-2 -10q0 -55 65 -56l41 7l15 4l10 -15q-8 -10 -19 -12l-88 -31q-45 -14 -62 -18t-38 -4q-45 0 -74.5 23.5t-29.5 56.5zM813 1608 q0 20 23 28l137 60l18 6l15 -14q-2 -12 -11 -25l-2 -10q0 -55 66 -56l41 7l14 4l10 -15q-8 -10 -18 -12l-88 -31q-47 -14 -63.5 -18t-36.5 -4q-45 0 -75 23.5t-30 56.5z" />
<glyph unicode="&#xd7;" d="M180 406l6 10l269 268l-269 266l-6 11l10 10l29 -13l84 -38q27 -14 42 -26.5t34 -31.5l127 -127l125 127q45 41 76 58l90 43l24 8l10 -10l-6 -11l-268 -266l268 -268l6 -8l-10 -11q-18 4 -24 9l-90 40q-33 16 -76 60l-125 125l-127 -125q-37 -39 -76 -57l-84 -41l-29 -11 z" />
<glyph unicode="&#xd8;" horiz-adv-x="1497" d="M88 655q0 295 223.5 510t528.5 215q129 1 260 -69l18 28q16 25 22.5 33t28.5 29l76 74q4 4 17 8l10 -10l-10 -23l-109 -174q123 -90 188.5 -235.5t65.5 -323.5q0 -330 -176 -479.5t-306 -200.5t-255 -51q-147 0 -275 71l-20 -32l-33 -45l-86 -80q-2 -4 -14 -9l-11 11 l7 16l106 172q-256 193 -256 565zM260 715q0 -302 170 -484l588 949q-141 127 -340 127q-31 0 -49.5 -2t-53.5 -13q-152 -78 -233.5 -227.5t-81.5 -349.5zM475 188q70 -59 161 -94t179 -35q51 0 111 15q145 74 227 228.5t82 361.5q0 293 -170 471z" />
<glyph unicode="&#xd9;" horiz-adv-x="1308" d="M74 1276q8 12 16 14l217 84l41 12q17 1 17 -38v-807q0 -111 10 -171.5t45 -132t111.5 -120.5t164.5 -49q98 0 197 41q119 135 119 391v737v31q0 41 -2 47t-11 6l-14 -2l-12 12q0 12 20 19l88 30l9 2l16 4q14 0 14 -45v-790q0 -233 -88 -348t-199.5 -166t-238.5 -51 q-399 0 -399 493v717q0 80 -54 80l-43 -10l-14 -4q-10 10 -10 14zM385 1700q10 14 18 14l107 25l18 2q16 0 17 -12l-4 -19q0 -39 60.5 -101.5t109.5 -90t52 -32.5t5 -7l-12 -11q-8 0 -29.5 10.5t-110 55.5t-129.5 67.5t-71.5 50t-30.5 48.5z" />
<glyph unicode="&#xda;" horiz-adv-x="1308" d="M74 1276q8 12 16 14l217 84l41 12q17 1 17 -38v-807q0 -111 10 -171.5t45 -132t111.5 -120.5t164.5 -49q98 0 197 41q119 135 119 391v737v31q0 41 -2 47t-11 6l-14 -2l-12 12q0 12 20 19l88 30l9 2l16 4q14 0 14 -45v-790q0 -233 -88 -348t-199.5 -166t-238.5 -51 q-399 0 -399 493v717q0 80 -54 80l-43 -10l-14 -4q-10 10 -10 14zM535 1464q6 8 59 38t125 104l24 36l9 19l-11 27q0 10 27 16l119 25l35 6q23 0 22 -19q0 -20 -57.5 -67t-145.5 -97l-170 -86l-28 -10z" />
<glyph unicode="&#xdb;" horiz-adv-x="1308" d="M74 1276q8 12 16 14l217 84l41 12q17 1 17 -38v-807q0 -111 10 -171.5t45 -132t111.5 -120.5t164.5 -49q98 0 197 41q119 135 119 391v737v31q0 41 -2 47t-11 6l-14 -2l-12 12q0 12 20 19l88 30l9 2l16 4q14 0 14 -45v-790q0 -233 -88 -348t-199.5 -166t-238.5 -51 q-399 0 -399 493v717q0 80 -54 80l-43 -10l-14 -4q-10 10 -10 14zM362 1497l5 10l245 181q12 8 47 20l58 21l14 4l21 -13l231 -164q10 -10 13 -15t5 -7q-6 -10 -10 -10l-86 -21h-14q-13 1 -33 17l-166 118q-27 16 -41 35l-22 -20l-154 -115q-23 -20 -35 -22l-45 -19l-24 -8z " />
<glyph unicode="&#xdc;" horiz-adv-x="1308" d="M74 1276q8 12 16 14l217 84l41 12q17 1 17 -38v-807q0 -111 10 -171.5t45 -132t111.5 -120.5t164.5 -49q98 0 197 41q119 135 119 391v737v31q0 41 -2 47t-11 6l-14 -2l-12 12q0 12 20 19l88 30l9 2l16 4q14 0 14 -45v-790q0 -233 -88 -348t-199.5 -166t-238.5 -51 q-399 0 -399 493v717q0 80 -54 80l-43 -10l-14 -4q-10 10 -10 14zM322 1608q-1 20 22 28l137 60l19 6q4 0 8 -6t6 -8q-2 -12 -10 -25l-2 -10q0 -55 65 -56l41 7l15 4l10 -15q-8 -10 -19 -12l-88 -31q-45 -14 -62.5 -18t-37.5 -4q-45 0 -74.5 23.5t-29.5 56.5zM725 1608 q0 20 23 28l137 60l18 6l15 -14q-2 -12 -11 -25l-2 -10q0 -55 66 -56l41 7l14 4l10 -15q-8 -10 -18 -12l-88 -31q-47 -14 -63.5 -18t-37.5 -4q-45 0 -74.5 23.5t-29.5 56.5z" />
<glyph unicode="&#xdd;" horiz-adv-x="919" d="M-82 1313q0 10 23 18l122 41l54 14q16 2 26.5 -10t57.5 -94l225 -403l14 -27q23 -43 42.5 -79t31.5 -71q10 27 17.5 44.5t31.5 58.5l49 88l170 305q39 72 39 94q0 6 -4 9.5t-6 5.5l-6 -2q-14 10 -14 14q0 10 22 18l121 43l29 6q12 0 12 -14q0 -10 -13.5 -33.5 t-25.5 -46.5l-387 -651v-487v-61.5t12 -22.5h14q12 -10 13 -15q-12 -14 -21 -16l-143 -51l-31 -8q-14 0 -14 24v598l-350 651q-20 41 -27.5 48.5t-24.5 7.5q-12 0 -38 -9l-11 -2q-10 10 -10 15zM395 1464q6 8 62.5 40t120.5 102l24 36l8 19l-8 20q0 17 27 23l116 25l37 6 q20 0 21 -19q0 -20 -57.5 -67t-145.5 -97l-168 -86l-29 -10z" />
<glyph unicode="&#xde;" horiz-adv-x="993" d="M80 1276q8 12 16 14l217 84l41 12q16 0 17 -38v-256l143 6q438 0 438 -293q0 -172 -159.5 -289t-391.5 -117h-30v-245v-61.5t12 -22.5h14q12 -10 13 -15q-12 -14 -21 -16l-143 -51l-31 -8q-14 0 -14 24v1192q0 80 -54 80l-43 -10l-14 -4q-10 10 -10 14zM371 481 q121 -12 155 -12l107 6q68 31 109.5 109t41.5 170q0 276 -370 276h-43v-549z" />
<glyph unicode="&#xdf;" horiz-adv-x="1050" d="M45 864q6 12 10 15l127 51v108q0 205 150.5 353.5t357.5 148.5q98 0 158.5 -49t60.5 -129q0 -78 -49 -149.5t-147.5 -158.5t-120 -114t-21.5 -55q0 -51 51.5 -100.5t93.5 -84t153.5 -128t111.5 -234.5q0 -135 -141.5 -245.5t-313.5 -110.5q-78 0 -77 34q0 13 16 23l82 51 l16 6l12 -12l-4 -10q12 -6 27 -13q29 -6 70 -6l67 6q94 63 94 187q0 82 -36.5 140t-154.5 167t-160 164t-42 104q0 43 22.5 76t118 122t136.5 151.5t41 127.5q0 74 -49.5 117t-131.5 43q-51 0 -127 -20q-100 -115 -100 -320v-1024q0 -35 10 -35l13 2q10 -12 10 -20t-19 -16 l-149 -45l-14 -2q-14 0 -15 32v736q0 66 -16 90t-60 24l-40 -6l-11 -2z" />
<glyph unicode="&#xe0;" horiz-adv-x="905" d="M82 184q0 139 112.5 225.5t362.5 137.5v180q0 100 -28.5 135t-110.5 35l-60 -2q-82 -51 -92 -102.5t-65.5 -75t-67.5 -23.5q-14 0 -14 15q0 25 23.5 60.5t124 118.5t294.5 83q160 0 160 -187v-614q0 -61 10 -81.5t43 -20.5q31 0 86 20l12 4l13 -12q-14 -14 -27 -19 l-151 -57q-43 -18 -76 -18q-68 0 -68 114l6 95q-123 -209 -297 -209q-190 0 -190 198zM180 1444q1 12 19 18l112 47l19 7q6 0 10 -5.5t6 -7.5l-2 -10q-8 -18 -8 -39q0 -53 78 -160.5t124 -141.5t47 -38t3 -6q-12 -10 -17 -10q-8 0 -42.5 23.5t-113.5 83t-157 137t-78 102.5z M244 231q0 -70 31.5 -107.5t89.5 -37.5q94 0 192 119v309q-313 -47 -313 -283z" />
<glyph unicode="&#xe1;" horiz-adv-x="905" d="M82 184q0 139 112.5 225.5t362.5 137.5v180q0 100 -28.5 135t-110.5 35l-60 -2q-82 -51 -92 -102.5t-65.5 -75t-67.5 -23.5q-14 0 -14 15q0 25 23.5 60.5t124 118.5t294.5 83q160 0 160 -187v-614q0 -61 10 -81.5t43 -20.5q31 0 86 20l12 4l13 -12q-14 -14 -27 -19 l-151 -57q-43 -18 -76 -18q-68 0 -68 114l6 95q-123 -209 -297 -209q-190 0 -190 198zM244 231q0 -70 31.5 -107.5t89.5 -37.5q94 0 192 119v309q-313 -47 -313 -283zM338 1100q8 14 30.5 32.5t76 78t89 114.5t35.5 80q-6 8 -14 12l-8 13q8 12 14 14l154 65l33 11 q14 0 14 -19q0 -80 -178 -226.5t-204 -164.5t-36 -18z" />
<glyph unicode="&#xe2;" horiz-adv-x="905" d="M82 184q0 139 112.5 225.5t362.5 137.5v180q0 100 -28.5 135t-110.5 35l-60 -2q-82 -51 -92 -102.5t-65.5 -75t-67.5 -23.5q-14 0 -14 15q0 25 23.5 60.5t124 118.5t294.5 83q160 0 160 -187v-614q0 -61 10 -81.5t43 -20.5q31 0 86 20l12 4l13 -12q-14 -14 -27 -19 l-151 -57q-43 -18 -76 -18q-68 0 -68 114l6 95q-123 -209 -297 -209q-190 0 -190 198zM141 1176l9 14l268 248q27 25 47 35l45 20l16 6q8 0 25 -16l233 -246q8 -8 13 -18q-8 -10 -15 -13l-80 -35l-16 -4q-14 0 -17 2t-26 31l-158 176l-34 39l-35 -39l-154 -139 q-10 -10 -29.5 -24.5t-31.5 -20.5l-39 -18l-12 -5zM244 231q0 -70 31.5 -107.5t89.5 -37.5q94 0 192 119v309q-313 -47 -313 -283z" />
<glyph unicode="&#xe3;" horiz-adv-x="905" d="M82 184q0 139 112.5 225.5t362.5 137.5v180q0 100 -28.5 135t-110.5 35l-60 -2q-82 -51 -92 -102.5t-65.5 -75t-67.5 -23.5q-14 0 -14 15q0 25 23.5 60.5t124 118.5t294.5 83q160 0 160 -187v-614q0 -61 10 -81.5t43 -20.5q31 0 86 20l12 4l13 -12q-14 -14 -27 -19 l-151 -57q-43 -18 -76 -18q-68 0 -68 114l6 95q-123 -209 -297 -209q-190 0 -190 198zM92 1221q0 14 68.5 87.5t154.5 73.5q35 0 60.5 -7t120 -46t125.5 -39q55 0 122 76l17 10l8 -10q0 -14 -72.5 -87t-165.5 -73q-27 0 -54 8.5t-98 37t-96.5 36.5t-50.5 8 q-47 0 -80.5 -37.5t-40 -42t-8.5 -4.5zM244 231q0 -70 31.5 -107.5t89.5 -37.5q94 0 192 119v309q-313 -47 -313 -283z" />
<glyph unicode="&#xe4;" horiz-adv-x="905" d="M82 184q0 139 112.5 225.5t362.5 137.5v180q0 100 -28.5 135t-110.5 35l-60 -2q-82 -51 -92 -102.5t-65.5 -75t-67.5 -23.5q-14 0 -14 15q0 25 23.5 60.5t124 118.5t294.5 83q160 0 160 -187v-614q0 -61 10 -81.5t43 -20.5q31 0 86 20l12 4l13 -12q-14 -14 -27 -19 l-151 -57q-43 -18 -76 -18q-68 0 -68 114l6 95q-123 -209 -297 -209q-190 0 -190 198zM123 1294q-1 21 22 29l129 55l19 6q12 -10 12 -14l-6 -14l-6 -21q0 -20 16.5 -34.5t42.5 -14.5q20 0 45 8l11 2q12 -10 12 -14q-10 -10 -19 -14l-84 -29q-37 -12 -56 -16t-34 -4 q-45 0 -74.5 21.5t-29.5 53.5zM244 231q0 -70 31.5 -107.5t89.5 -37.5q94 0 192 119v309q-313 -47 -313 -283zM498 1294q0 21 20 29l131 55l19 6q12 -10 12 -14l-6 -14l-6 -21q0 -49 57 -49q20 0 45 8l10 2q12 -10 13 -14q-8 -12 -17 -14l-84 -29q-37 -12 -56.5 -16 t-33.5 -4q-45 0 -74.5 21.5t-29.5 53.5z" />
<glyph unicode="&#xe5;" horiz-adv-x="905" d="M82 184q0 139 112.5 225.5t362.5 137.5v180q0 100 -28.5 135t-110.5 35l-60 -2q-82 -51 -92 -102.5t-65.5 -75t-67.5 -23.5q-14 0 -14 15q0 25 23.5 60.5t124 118.5t294.5 83q160 0 160 -187v-614q0 -61 10 -81.5t43 -20.5q31 0 86 20l12 4l13 -12q-14 -14 -27 -19 l-151 -57q-43 -18 -76 -18q-68 0 -68 114l6 95q-123 -209 -297 -209q-190 0 -190 198zM244 231q0 -70 31.5 -107.5t89.5 -37.5q94 0 192 119v309q-313 -47 -313 -283zM252 1294q0 80 77.5 139.5t186.5 59.5q72 0 115 -39t43 -106q0 -86 -74 -145.5t-180 -59.5q-74 0 -121 41 t-47 110zM336 1329q0 -135 164 -135l49 4q39 47 39 109q0 137 -150 137l-61 -8q-25 -37 -33 -58.5t-8 -48.5z" />
<glyph unicode="&#xe6;" horiz-adv-x="1310" d="M76 174q0 131 120.5 229.5t338.5 139.5v192q0 98 -28 132t-106 34l-41 -2q-76 -51 -91 -103.5t-23 -59.5t-47 -21l-68 -23q-14 0 -14 17q0 29 29.5 66.5t130 115.5t253.5 78q135 0 136 -148l-7 -65q121 213 347 213q111 0 180 -82t69 -215q0 -53 -11 -67.5t-81 -37 t-166 -22.5h-305l-4 -70q0 -178 87 -289.5t222 -111.5q53 0 93 14t106 59l18 9q12 -12 13 -17q0 -6 -7.5 -11t-113 -73.5t-238.5 -68.5q-203 0 -299 213q-61 -98 -146 -155.5t-171 -57.5q-78 0 -127 51t-49 137zM240 223q0 -66 32.5 -106.5t87.5 -40.5q51 0 105.5 41 t93.5 106q-27 94 -27 221l3 68q-143 -25 -219 -98.5t-76 -190.5zM700 621h408q0 279 -219 278h-37q-72 -53 -105 -113.5t-47 -164.5z" />
<glyph unicode="&#xe7;" horiz-adv-x="813" d="M82 414q0 254 155.5 405.5t413.5 151.5q76 0 119 -15.5t43 -42.5q0 -14 -18 -22l-131 -66l-9 -2q-18 0 -18 19l2 8l4 8q2 10 -55.5 22.5t-118.5 12.5l-57 -4q-168 -145 -168 -389q0 -193 85 -309.5t224 -116.5q90 0 211 80l16 6l11 -13q0 -10 -108 -85.5t-267 -75.5 q-147 0 -240.5 119.5t-93.5 308.5zM367 -188q8 12 14 16l57 31q16 10 33 10q27 0 84 -41t57 -92q0 -45 -51 -76l-94 -57l-18 -9l-11 13q2 4 6.5 9t26 19.5t21.5 42.5q0 35 -24 60.5t-59.5 44t-38.5 23t-3 6.5z" />
<glyph unicode="&#xe8;" horiz-adv-x="870" d="M76 422q0 219 141 383t330 164q117 0 191.5 -83t74.5 -210q0 -41 -8 -56.5t-49 -31t-101.5 -25.5t-119.5 -10h-302l-2 -76q0 -178 88.5 -291.5t227.5 -113.5q106 0 159.5 35.5t67.5 39.5l12 -12q0 -6 -20.5 -20.5t-87 -53t-124.5 -57t-122 -18.5q-164 0 -260 118.5 t-96 317.5zM162 1444q0 12 18 18l113 47l18 7q6 0 10.5 -5.5t6.5 -7.5l-2 -10q-8 -18 -9 -39q0 -53 78 -160.5t124 -141.5t47 -38t3 -6q-12 -10 -16 -10q-8 0 -43 23.5t-114 83t-156.5 137t-77.5 102.5zM246 629h420q0 270 -226 270l-34 -2q-68 -55 -104 -116.5t-56 -151.5z " />
<glyph unicode="&#xe9;" horiz-adv-x="870" d="M76 422q0 219 141 383t330 164q117 0 191.5 -83t74.5 -210q0 -41 -8 -56.5t-49 -31t-101.5 -25.5t-119.5 -10h-302l-2 -76q0 -178 88.5 -291.5t227.5 -113.5q106 0 159.5 35.5t67.5 39.5l12 -12q0 -6 -20.5 -20.5t-87 -53t-124.5 -57t-122 -18.5q-164 0 -260 118.5 t-96 317.5zM246 629h420q0 270 -226 270l-34 -2q-68 -55 -104 -116.5t-56 -151.5zM317 1100q8 14 31 32.5t76 78t89 114.5t36 80q-6 8 -14 12l-9 13q9 12 15 14l153 65l33 11q14 0 14 -19q0 -80 -178 -226.5t-203.5 -164.5t-35.5 -18z" />
<glyph unicode="&#xea;" horiz-adv-x="870" d="M76 422q0 219 141 383t330 164q117 0 191.5 -83t74.5 -210q0 -41 -8 -56.5t-49 -31t-101.5 -25.5t-119.5 -10h-302l-2 -76q0 -178 88.5 -291.5t227.5 -113.5q106 0 159.5 35.5t67.5 39.5l12 -12q0 -6 -20.5 -20.5t-87 -53t-124.5 -57t-122 -18.5q-164 0 -260 118.5 t-96 317.5zM121 1176l8 14l268 248q27 25 47 35l45 20l17 6q8 0 24 -16l234 -246q8 -8 12 -18q-8 -10 -14 -13l-80 -35l-16 -4q-14 0 -17 2t-26 31l-158 176l-35 39l-35 -39l-153 -139q-10 -10 -29.5 -24.5t-32.5 -20.5l-39 -18l-12 -5zM246 629h420q0 270 -226 270l-34 -2 q-68 -55 -104 -116.5t-56 -151.5z" />
<glyph unicode="&#xeb;" horiz-adv-x="870" d="M76 422q0 219 141 383t330 164q117 0 191.5 -83t74.5 -210q0 -41 -8 -56.5t-49 -31t-101.5 -25.5t-119.5 -10h-302l-2 -76q0 -178 88.5 -291.5t227.5 -113.5q106 0 159.5 35.5t67.5 39.5l12 -12q0 -6 -20.5 -20.5t-87 -53t-124.5 -57t-122 -18.5q-164 0 -260 118.5 t-96 317.5zM104 1294q0 21 23 29l129 55l18 6q12 -10 13 -14l-6 -14l-7 -21q0 -20 16.5 -34.5t43.5 -14.5q20 0 45 8l10 2q12 -10 12 -14q-10 -10 -18 -14l-84 -29q-37 -12 -56.5 -16t-33.5 -4q-45 0 -75 21.5t-30 53.5zM246 629h420q0 270 -226 270l-34 -2 q-68 -55 -104 -116.5t-56 -151.5zM479 1294q1 21 21 29l131 55l18 6q12 -10 13 -14l-7 -14l-6 -21q0 -49 58 -49q20 0 45 8l10 2q12 -10 12 -14q-8 -12 -16 -14l-84 -29q-37 -12 -56.5 -16t-33.5 -4q-45 0 -75 21.5t-30 53.5z" />
<glyph unicode="&#xec;" horiz-adv-x="534" d="M-6 1444q0 12 18 18l113 47l18 7q6 0 10.5 -5.5t6.5 -7.5l-2 -10q-8 -18 -8 -39q0 -53 77.5 -160.5t123.5 -141.5t47 -38t3 -6q-12 -10 -16 -10q-8 0 -43 23.5t-113.5 83t-156.5 137t-78 102.5zM66 864q0 10 28 23l203 80l33 10q12 0 15 -8t3 -37v-795q0 -72 47 -71l27 4 l22 6l15 4l10 -10q0 -12 -29 -23l-135 -45q-39 -12 -46 -14t-26 -2q-33 0 -41 19t-8 99v687q0 47 -8 63t-35 16q-14 0 -51 -14l-12 -4z" />
<glyph unicode="&#xed;" horiz-adv-x="534" d="M66 864q0 10 28 23l203 80l33 10q12 0 15 -8t3 -37v-795q0 -72 47 -71l27 4l22 6l15 4l10 -10q0 -12 -29 -23l-135 -45q-39 -12 -46 -14t-26 -2q-33 0 -41 19t-8 99v687q0 47 -8 63t-35 16q-14 0 -51 -14l-12 -4zM152 1100q8 14 30.5 32.5t75.5 78t89 114.5t36 80 q-6 8 -14 12l-9 13q9 12 15 14l153 65l33 11q14 0 14 -19q0 -80 -178 -226.5t-203.5 -164.5t-35.5 -18z" />
<glyph unicode="&#xee;" horiz-adv-x="534" d="M-45 1176l8 14l268 248q27 25 48 35l45 20l16 6q8 0 25 -16l233 -246q8 -8 12 -18q-8 -10 -14 -13l-80 -35l-16 -4q-14 0 -17 2t-26 31l-158 176l-35 39l-35 -39l-153 -139q-10 -10 -29.5 -24.5t-32.5 -20.5l-39 -18l-12 -5zM68 864q0 10 28 23l203 80l33 10q12 0 15 -8 t3 -37v-795q0 -72 47 -71l27 4l22 6l15 4l10 -10q0 -12 -29 -23l-135 -45q-39 -12 -46 -14t-25 -2q-33 0 -41.5 19t-8.5 99v687q0 47 -8 63t-35 16q-14 0 -51 -14l-12 -4z" />
<glyph unicode="&#xef;" horiz-adv-x="534" d="M-49 1294q-1 21 22 29l129 55l19 6q12 -10 12 -14l-6 -14l-6 -21q0 -20 16.5 -34.5t42.5 -14.5q20 0 45 8l11 2q12 -10 12 -14q-10 -10 -19 -14l-84 -29q-37 -12 -56 -16t-34 -4q-45 0 -74.5 21.5t-29.5 53.5zM68 864q0 10 28 23l203 80l33 10q12 0 15 -8t3 -37v-795 q0 -72 47 -71l27 4l22 6l15 4l10 -10q0 -12 -29 -23l-135 -45q-39 -12 -46 -14t-25 -2q-33 0 -41.5 19t-8.5 99v687q0 47 -8 63t-35 16q-14 0 -51 -14l-12 -4zM297 1294q-1 21 22 29l130 55l18 6q14 0 14 -14l-8 -14l-6 -21q0 -20 16.5 -34.5t42.5 -14.5q20 0 45 8l11 2 q12 -10 12 -14q-10 -12 -19 -14l-83 -29q-41 -12 -57.5 -16t-33.5 -4q-45 0 -74.5 21.5t-29.5 53.5z" />
<glyph unicode="&#xf0;" horiz-adv-x="1052" d="M78 408q0 233 143.5 391.5t356.5 158.5q70 0 200 -34q-37 145 -91 241.5t-148 186.5l-183 -170l-8 -4l-8 10l8 18l51 84q16 27 29.5 42.5t46.5 47.5l19 15q-70 63 -106 85.5t-48 32t-12 17.5q0 18 20 18q25 0 88.5 -29.5t118.5 -66.5l170 160l8 4l10 -10l-6 -15l-59 -92 q-16 -27 -29.5 -42t-40.5 -42q377 -291 377 -776q0 -281 -98.5 -410t-219 -186t-243.5 -57q-154 0 -250 116.5t-96 305.5zM242 487q0 -178 91 -299.5t226 -121.5q31 0 88 10q162 125 162 383q0 182 -92 306t-228 124l-88 -6q-160 -139 -159 -396z" />
<glyph unicode="&#xf1;" horiz-adv-x="1114" d="M66 868q0 10 26 23l193 74q25 8 41 12q16 0 16 -43v-166q0 -41 -8 -74q217 276 405 277q98 0 143.5 -57.5t45.5 -184.5v-592q0 -72 47 -71l26 4l23 6l14 4l11 -10q0 -12 -29 -23l-135 -45q-39 -12 -46.5 -14t-25.5 -2q-33 0 -41 19.5t-8 98.5v584q0 98 -25.5 134 t-97.5 36t-147.5 -47t-145.5 -137v-578q0 -35 10 -35l13 2q10 -12 10 -20q0 -10 -19 -16l-147 -45l-16 -2q-14 0 -15 32v764q0 63 -6 80.5t-33 17.5q-4 0 -17 -3t-38 -11l-14 -4q-10 8 -10 12zM197 1221q0 14 68.5 87.5t154.5 73.5q35 0 60.5 -7t119.5 -46t125 -39 q55 0 123 76l16 10l8 -10q0 -14 -72.5 -87t-164.5 -73q-27 0 -54.5 8.5t-98 37t-96 36.5t-50.5 8q-47 0 -81 -37.5t-40 -42t-8 -4.5z" />
<glyph unicode="&#xf2;" horiz-adv-x="1050" d="M78 408q0 242 157 402.5t390 160.5q154 0 251 -118t97 -306q0 -242 -155.5 -401.5t-393.5 -159.5q-154 0 -250 116.5t-96 305.5zM242 487q0 -178 91 -299.5t226 -121.5q31 0 88 10q164 129 164 385q0 182 -92 306t-230 124l-88 -8q-160 -139 -159 -396zM252 1444 q0 12 18 18l113 47l18 7q6 0 10.5 -5.5t6.5 -7.5l-2 -10q-8 -18 -8 -39q0 -53 77.5 -160.5t123.5 -141.5t47 -38t3 -6q-12 -10 -16 -10q-8 0 -43 23.5t-113.5 83t-156.5 137t-78 102.5z" />
<glyph unicode="&#xf3;" horiz-adv-x="1050" d="M78 408q0 242 157 402.5t390 160.5q154 0 251 -118t97 -306q0 -242 -155.5 -401.5t-393.5 -159.5q-154 0 -250 116.5t-96 305.5zM242 487q0 -178 91 -299.5t226 -121.5q31 0 88 10q164 129 164 385q0 182 -92 306t-230 124l-88 -8q-160 -139 -159 -396zM410 1100 q8 14 30.5 32.5t75.5 78t89 114.5t36 80q-6 8 -14 12l-9 13q9 12 15 14l153 65l33 11q14 0 15 -19q0 -80 -178.5 -226.5t-204 -164.5t-35.5 -18z" />
<glyph unicode="&#xf4;" horiz-adv-x="1050" d="M78 408q0 242 157 402.5t390 160.5q154 0 251 -118t97 -306q0 -242 -155.5 -401.5t-393.5 -159.5q-154 0 -250 116.5t-96 305.5zM213 1176l8 14l268 248q27 25 48 35l45 20l16 6q8 0 25 -16l233 -246q8 -8 12 -18q-8 -10 -14 -13l-80 -35l-16 -4q-14 0 -17 2t-26 31 l-158 176l-35 39l-35 -39l-153 -139q-10 -10 -29.5 -24.5t-32.5 -20.5l-39 -18l-12 -5zM242 487q0 -178 91 -299.5t226 -121.5q31 0 88 10q164 129 164 385q0 182 -92 306t-230 124l-88 -8q-160 -139 -159 -396z" />
<glyph unicode="&#xf5;" horiz-adv-x="1050" d="M78 408q0 242 157 402.5t390 160.5q154 0 251 -118t97 -306q0 -242 -155.5 -401.5t-393.5 -159.5q-154 0 -250 116.5t-96 305.5zM166 1221q0 14 68.5 87.5t154.5 73.5q35 0 60.5 -7t120 -46t124.5 -39q55 0 123 76l17 10l8 -10q0 -14 -73 -87t-165 -73q-27 0 -54.5 8.5 t-98 37t-96 36.5t-50.5 8q-47 0 -81 -37.5t-40 -42t-8 -4.5zM242 487q0 -178 91 -299.5t226 -121.5q31 0 88 10q164 129 164 385q0 182 -92 306t-230 124l-88 -8q-160 -139 -159 -396z" />
<glyph unicode="&#xf6;" horiz-adv-x="1050" d="M78 408q0 242 157 402.5t390 160.5q154 0 251 -118t97 -306q0 -242 -155.5 -401.5t-393.5 -159.5q-154 0 -250 116.5t-96 305.5zM209 1294q-1 21 22 29l129 55l19 6q12 -10 12 -14l-6 -14l-6 -21q0 -20 16.5 -34.5t42.5 -14.5q20 0 45 8l11 2q12 -10 12 -14 q-10 -10 -19 -14l-84 -29q-37 -12 -56 -16t-34 -4q-45 0 -74.5 21.5t-29.5 53.5zM242 487q0 -178 91 -299.5t226 -121.5q31 0 88 10q164 129 164 385q0 182 -92 306t-230 124l-88 -8q-160 -139 -159 -396zM584 1294q0 21 20 29l131 55l19 6q12 -10 12 -14l-6 -14l-6 -21 q0 -49 57 -49q20 0 45 8l10 2q12 -10 13 -14q-8 -12 -17 -14l-84 -29q-37 -12 -56.5 -16t-33.5 -4q-45 0 -74.5 21.5t-29.5 53.5z" />
<glyph unicode="&#xf7;" d="M76 653q0 10 30 21l89 31q39 14 96 14h629q6 0 9 -3l5 -5q0 -8 -27 -19l-92 -35q-33 -12 -96 -12h-629q-8 0 -14 8zM428 369q0 31 22.5 53t55.5 22q29 0 51.5 -22.5t22.5 -52.5q0 -31 -22.5 -53.5t-53.5 -22.5t-53.5 22.5t-22.5 53.5zM428 997q0 31 22.5 53.5t55.5 22.5 q29 0 51.5 -22.5t22.5 -53.5q0 -33 -21.5 -54t-54.5 -21t-54.5 21.5t-21.5 53.5z" />
<glyph unicode="&#xf8;" horiz-adv-x="1050" d="M78 408q0 242 156.5 402.5t390.5 160.5q74 0 137 -29l8 14q10 16 35 41l61 64q8 10 17 12l2 2l12 -12l-6 -12l-82 -136q164 -115 164 -368q0 -242 -155.5 -401.5t-393.5 -159.5q-86 0 -158 39l-4 -7q-14 -25 -31 -43l-67 -73q-14 -14 -23 -15l-10 9l4 14l88 143 q-145 119 -145 355zM242 489q-1 -163 77 -278l361 596q-84 84 -191 84l-88 -8q-160 -135 -159 -394zM352 166q88 -100 207 -100q29 0 88 10q164 129 164 385q0 176 -94 303z" />
<glyph unicode="&#xf9;" horiz-adv-x="1112" d="M66 864q0 10 28 23l203 80l33 10q18 0 18 -41v-680q0 -158 117 -158q141 1 297 185v508q0 49 -8.5 64t-36.5 15q-12 0 -51 -14l-13 -4l-12 12q0 6 3 9.5t28 13.5l202 80l33 10q18 0 19 -41v-770q0 -47 8 -63.5t35 -16.5q14 0 51 14l12 4l12 -12q0 -10 -28 -22l-203 -80 l-33 -10q-18 0 -18 34l6 166v36.5t6 45.5q-57 -80 -137 -151.5t-139.5 -98t-126.5 -26.5q-100 0 -143.5 53t-43.5 182v570q0 47 -8 63t-35 16q-14 0 -51 -14l-12 -4zM281 1444q0 12 18 18l113 47l18 7q6 0 10 -5.5t6 -7.5l-2 -10q-8 -18 -8 -39q0 -53 78 -160.5t124 -141.5 t47 -38t3 -6q-12 -10 -16 -10q-8 0 -43 23.5t-114 83t-156.5 137t-77.5 102.5z" />
<glyph unicode="&#xfa;" horiz-adv-x="1112" d="M66 864q0 10 28 23l203 80l33 10q18 0 18 -41v-680q0 -158 117 -158q141 1 297 185v508q0 49 -8.5 64t-36.5 15q-12 0 -51 -14l-13 -4l-12 12q0 6 3 9.5t28 13.5l202 80l33 10q18 0 19 -41v-770q0 -47 8 -63.5t35 -16.5q14 0 51 14l12 4l12 -12q0 -10 -28 -22l-203 -80 l-33 -10q-18 0 -18 34l6 166v36.5t6 45.5q-57 -80 -137 -151.5t-139.5 -98t-126.5 -26.5q-100 0 -143.5 53t-43.5 182v570q0 47 -8 63t-35 16q-14 0 -51 -14l-12 -4zM438 1100q8 14 31 32.5t76 78t89 114.5t36 80q-6 8 -15 12l-8 13q9 12 15 14l153 65l33 11q14 0 14 -19 q0 -80 -178 -226.5t-203.5 -164.5t-36.5 -18z" />
<glyph unicode="&#xfb;" horiz-adv-x="1112" d="M66 864q0 10 28 23l203 80l33 10q18 0 18 -41v-680q0 -158 117 -158q141 1 297 185v508q0 49 -8.5 64t-36.5 15q-12 0 -51 -14l-13 -4l-12 12q0 6 3 9.5t28 13.5l202 80l33 10q18 0 19 -41v-770q0 -47 8 -63.5t35 -16.5q14 0 51 14l12 4l12 -12q0 -10 -28 -22l-203 -80 l-33 -10q-18 0 -18 34l6 166v36.5t6 45.5q-57 -80 -137 -151.5t-139.5 -98t-126.5 -26.5q-100 0 -143.5 53t-43.5 182v570q0 47 -8 63t-35 16q-14 0 -51 -14l-12 -4zM242 1176l8 14l268 248q27 25 47 35l45 20l17 6q8 0 24 -16l234 -246q8 -8 12 -18q-8 -10 -14 -13l-80 -35 l-17 -4q-14 0 -17 2t-26 31l-157 176l-35 39l-35 -39l-154 -139q-10 -10 -29.5 -24.5t-31.5 -20.5l-39 -18l-12 -5z" />
<glyph unicode="&#xfc;" horiz-adv-x="1112" d="M66 864q0 10 28 23l203 80l33 10q18 0 18 -41v-680q0 -158 117 -158q141 1 297 185v508q0 49 -8.5 64t-36.5 15q-12 0 -51 -14l-13 -4l-12 12q0 6 3 9.5t28 13.5l202 80l33 10q18 0 19 -41v-770q0 -47 8 -63.5t35 -16.5q14 0 51 14l12 4l12 -12q0 -10 -28 -22l-203 -80 l-33 -10q-18 0 -18 34l6 166v36.5t6 45.5q-57 -80 -137 -151.5t-139.5 -98t-126.5 -26.5q-100 0 -143.5 53t-43.5 182v570q0 47 -8 63t-35 16q-14 0 -51 -14l-12 -4zM236 1294q-1 21 22 29l129 55l19 6q12 -10 12 -14l-6 -14l-6 -21q0 -20 16 -34.5t43 -14.5q20 0 45 8l10 2 q12 -10 12 -14q-10 -10 -18 -14l-84 -29q-37 -12 -56.5 -16t-33.5 -4q-45 0 -74.5 21.5t-29.5 53.5zM610 1294q1 21 21 29l131 55l18 6q12 -10 13 -14l-7 -14l-6 -21q0 -49 58 -49q20 0 45 8l10 2q12 -10 12 -14q-8 -12 -16 -14l-84 -29q-37 -12 -56.5 -16t-33.5 -4 q-45 0 -75 21.5t-30 53.5z" />
<glyph unicode="&#xfd;" horiz-adv-x="894" d="M-184 -545q0 12 16 27l76 65q8 6 14 8.5t10 4.5q16 0 17 -15v-12q0 -25 98 -25q63 0 133 15q39 41 66.5 88t60.5 126t50.5 127t29.5 89l-289 870q-14 47 -21 57.5t-24 8.5l-28 -6l-15 -4q-6 0 -8 4l-4 8q0 12 25 18l108 39l33 15l43 10q16 0 26.5 -12.5t22.5 -49.5 l160 -512l12 -39q20 -66 35.5 -116.5t21.5 -93.5q14 61 37 123.5t58 156.5l137 363q6 20 15 50.5t9 37.5q0 20 -14 20l-10 -2q-10 10 -10 14q0 10 20 19l113 39l22 6q14 0 15 -16q0 -10 -4.5 -21.5t-10.5 -28.5l-364 -958l-60 -154q-82 -186 -215 -286.5t-297 -100.5 q-111 0 -110 43zM426 1100q8 14 30.5 32.5t76 78t89 114.5t35.5 80q-4 8 -12 12l-8 13q8 12 14 14l152 65l33 11q14 0 14 -19q0 -80 -178 -226.5t-204 -164.5t-36 -18z" />
<glyph unicode="&#xfe;" horiz-adv-x="1064" d="M45 1438q0 10 29 22l196 80l31 10q12 0 15 -8t3 -37v-708v-52q-4 -31 -6 -47q106 145 200.5 209t201.5 64q125 0 196.5 -100.5t71.5 -276.5q0 -256 -166 -432t-409 -176q-37 0 -80 8v-473q0 -33 10 -33h12q10 -12 10 -18q0 -10 -18 -17l-149 -45l-15 -2q-14 0 -14 31 v1927q0 47 -8.5 63.5t-34.5 16.5q-14 0 -51 -14l-13 -5zM328 119q100 -51 243 -51h45q203 156 203 444q0 354 -209 354q-128 0 -282 -188v-559z" />
<glyph unicode="&#xff;" horiz-adv-x="894" d="M-184 -545q0 12 16 27l76 65q8 6 14 8.5t10 4.5q16 0 17 -15v-12q0 -25 98 -25q63 0 133 15q39 41 66.5 88t60.5 126t50.5 127t29.5 89l-289 870q-14 47 -21 57.5t-24 8.5l-28 -6l-15 -4q-6 0 -8 4l-4 8q0 12 25 18l108 39l33 15l43 10q16 0 26.5 -12.5t22.5 -49.5 l160 -512l12 -39q20 -66 35.5 -116.5t21.5 -93.5q14 61 37 123.5t58 156.5l137 363q6 20 15 50.5t9 37.5q0 20 -14 20l-10 -2q-10 10 -10 14q0 10 20 19l113 39l22 6q14 0 15 -16q0 -10 -4.5 -21.5t-10.5 -28.5l-364 -958l-60 -154q-82 -186 -215 -286.5t-297 -100.5 q-111 0 -110 43zM117 1294q-1 21 22 29l129 55l19 6q12 -10 12 -14l-6 -14l-6 -21q0 -20 16 -34.5t43 -14.5q20 0 45 8l10 2q12 -10 13 -14q-10 -10 -19 -14l-84 -29q-37 -12 -56 -16t-34 -4q-45 0 -74.5 21.5t-29.5 53.5zM492 1294q0 21 20 29l131 55l19 6q12 -10 12 -14 l-6 -14l-6 -21q0 -49 57 -49q20 0 45 8l10 2q12 -10 12 -14q-8 -12 -16 -14l-84 -29q-37 -12 -56.5 -16t-33.5 -4q-45 0 -74.5 21.5t-29.5 53.5z" />
<glyph unicode="&#x152;" horiz-adv-x="2076" d="M88 664q0 303 194.5 509.5t479.5 206.5q156 0 289 -73.5t192 -194.5l-4 88l-2 55v29q-10 0 -20 8q0 8 8 12.5t71.5 25t103.5 28.5t103 8h426h18.5t8.5 -10q-4 -4 -10.5 -8.5t-20.5 -10.5l-100 -32q-39 -12 -63.5 -16.5t-55.5 -4.5h-311v-530h514h18t8 -11 q-14 -14 -30 -18l-103 -33q-37 -12 -61.5 -16t-54.5 -4h-291v-590h393q139 0 203 18l12 2q12 -8 12 -12q-8 -12 -16 -14l-33 -10l-102 -31q-123 -35 -211 -35h-426v55l4 125l6 109q-98 -143 -245.5 -223t-317.5 -80q-262 0 -424 186t-162 492zM260 711q0 -293 143.5 -475.5 t378.5 -182.5q27 0 55 1.5t91 17.5q133 57 221 221t88 358q0 297 -148.5 486.5t-379.5 189.5q-66 0 -140 -16q-309 -166 -309 -600z" />
<glyph unicode="&#x153;" horiz-adv-x="1589" d="M78 424q0 231 144.5 388t357.5 157q111 0 196.5 -67.5t118.5 -182.5q45 106 154.5 178t230.5 72q111 0 182.5 -81t71.5 -206q0 -63 -67.5 -98t-192.5 -35h-316l-4 -64q0 -174 92.5 -292.5t229.5 -118.5q47 0 103.5 20.5t79 41t24.5 20.5h6l12 -13q0 -10 -14 -22 t-107.5 -73.5t-234.5 -61.5q-113 0 -195 73.5t-102 194.5q-41 -121 -151.5 -194.5t-256.5 -73.5q-168 0 -265 117.5t-97 320.5zM238 487q0 -186 91 -301.5t236 -115.5l76 6q78 53 121 154.5t43 228.5q0 188 -92 313t-234 125l-80 -8q-80 -59 -120.5 -160.5t-40.5 -241.5z M967 625h419q0 276 -227 276h-31q-70 -57 -106.5 -119.5t-54.5 -156.5z" />
<glyph unicode="&#x178;" horiz-adv-x="919" d="M-82 1313q0 10 23 18l122 41l54 14q16 2 26.5 -10t57.5 -94l225 -403l14 -27q23 -43 42.5 -79t31.5 -71q10 27 17.5 44.5t31.5 58.5l49 88l170 305q39 72 39 94q0 6 -4 9.5t-6 5.5l-6 -2q-14 10 -14 14q0 10 22 18l121 43l29 6q12 0 12 -14q0 -10 -13.5 -33.5 t-25.5 -46.5l-387 -651v-487v-61.5t12 -22.5h14q12 -10 13 -15q-12 -14 -21 -16l-143 -51l-31 -8q-14 0 -14 24v598l-350 651q-20 41 -27.5 48.5t-24.5 7.5q-12 0 -38 -9l-11 -2q-10 10 -10 15zM115 1608q-1 20 22 28l137 60l19 6q4 0 8 -6t6 -8q-2 -12 -10 -25l-2 -10 q0 -55 65 -56l41 7l15 4l10 -15q-8 -10 -18 -12l-89 -31q-45 -14 -62 -18t-38 -4q-45 0 -74.5 23.5t-29.5 56.5zM518 1608q0 20 23 28l137 60l18 6l15 -14q-2 -12 -11 -25l-2 -10q0 -55 66 -56l41 7l14 4l10 -15q-8 -10 -18 -12l-88 -31q-47 -14 -63.5 -18t-36.5 -4 q-45 0 -75 23.5t-30 56.5z" />
<glyph unicode="&#x2c6;" horiz-adv-x="1024" d="M199 1176l8 14l268 248q27 25 47 35l45 20l17 6q8 0 24 -16l234 -246q8 -8 12 -18q-8 -10 -14 -13l-80 -35l-17 -4q-14 0 -17 2t-26 31l-157 176l-35 39l-35 -39l-154 -139q-10 -10 -29.5 -24.5t-31.5 -20.5l-39 -18l-12 -5z" />
<glyph unicode="&#x2dc;" horiz-adv-x="1024" d="M152 1221q0 14 68.5 87.5t154.5 73.5q35 0 60.5 -7t119.5 -46t125 -39q55 0 123 76l16 10l8 -10q0 -14 -72.5 -87t-164.5 -73q-27 0 -54.5 8.5t-98 37t-96 36.5t-50.5 8q-47 0 -81 -37.5t-40 -42t-8 -4.5z" />
<glyph unicode="&#x2000;" horiz-adv-x="891" />
<glyph unicode="&#x2001;" horiz-adv-x="1782" />
<glyph unicode="&#x2002;" horiz-adv-x="891" />
<glyph unicode="&#x2003;" horiz-adv-x="1782" />
<glyph unicode="&#x2004;" horiz-adv-x="594" />
<glyph unicode="&#x2005;" horiz-adv-x="445" />
<glyph unicode="&#x2006;" horiz-adv-x="297" />
<glyph unicode="&#x2007;" horiz-adv-x="297" />
<glyph unicode="&#x2008;" horiz-adv-x="222" />
<glyph unicode="&#x2009;" horiz-adv-x="356" />
<glyph unicode="&#x200a;" horiz-adv-x="99" />
<glyph unicode="&#x2010;" horiz-adv-x="638" d="M0 471q0 10 35 23l96 32q50 17 107 17h385q16 0 16 -11q0 -10 -27 -20l-104 -37q-25 -10 -42 -12t-65 -2h-385q-16 0 -16 10z" />
<glyph unicode="&#x2011;" horiz-adv-x="638" d="M0 471q0 10 35 23l96 32q50 17 107 17h385q16 0 16 -11q0 -10 -27 -20l-104 -37q-25 -10 -42 -12t-65 -2h-385q-16 0 -16 10z" />
<glyph unicode="&#x2012;" horiz-adv-x="638" d="M0 471q0 10 35 23l96 32q50 17 107 17h385q16 0 16 -11q0 -10 -27 -20l-104 -37q-25 -10 -42 -12t-65 -2h-385q-16 0 -16 10z" />
<glyph unicode="&#x2013;" d="M82 471q0 10 35 23l96 32q49 17 106 17h592q18 0 19 -11q0 -8 -29 -20l-104 -37q-33 -14 -107 -14h-592q-16 0 -16 10z" />
<glyph unicode="&#x2014;" horiz-adv-x="1536" d="M0 471q0 10 35 23l96 32q50 17 107 17h1282q16 0 16 -11q0 -10 -29 -20l-102 -37q-25 -10 -42 -12t-65 -2h-1282q-16 0 -16 10z" />
<glyph unicode="&#x2018;" horiz-adv-x="473" d="M123 973q0 59 39 131t110.5 162t81.5 90l11 -10q-6 -12 -48.5 -75t-42.5 -167q0 -78 33 -82h8l17 -12q-1 -13 -15 -19l-114 -49l-47 -14q-33 0 -33 45z" />
<glyph unicode="&#x2019;" horiz-adv-x="473" d="M137 942q6 12 48 74.5t42 167.5q0 82 -34 82l-7 -2l-18 12q0 12 16 20l115 50l47 14q33 4 33 -45q0 -59 -39 -131t-110.5 -162t-82.5 -90z" />
<glyph unicode="&#x201a;" horiz-adv-x="458" d="M96 -244q6 12 48 75t42 167q0 78 -34 82h-13l-12 12q0 13 16 19l115 49l47 14q33 0 33 -45q0 -59 -39 -131t-110.5 -162t-82.5 -90z" />
<glyph unicode="&#x201c;" horiz-adv-x="774" d="M123 985q0 59 39 131t110.5 162t81.5 90l11 -10q-6 -12 -48.5 -74.5t-42.5 -167.5q0 -78 33 -82h8l17 -12q-1 -12 -15 -18l-114 -50l-47 -14q-33 0 -33 45zM424 985q0 59 39 131t109.5 162t80.5 90l11 -10q-4 -12 -46.5 -72.5t-42.5 -169.5q0 -78 33 -82h8l17 -12 q-1 -12 -17 -18l-112 -50l-47 -14q-33 0 -33 45z" />
<glyph unicode="&#x201d;" horiz-adv-x="776" d="M137 946q6 12 48 74.5t42 167.5q0 82 -34 82l-7 -2l-18 12q0 12 16 20l115 50l47 14q33 4 33 -45q0 -59 -39 -131t-110.5 -162t-82.5 -90zM440 946q6 12 48 74.5t42 167.5q0 82 -34 82l-7 -2l-18 12q0 12 16 20l115 50l47 14q33 4 33 -45q0 -59 -39 -131t-110.5 -162 t-81.5 -90z" />
<glyph unicode="&#x201e;" horiz-adv-x="761" d="M96 -244q6 12 48 75t42 167q0 78 -34 82h-13l-12 12q0 13 16 19l115 49l47 14q33 0 33 -45q0 -59 -39 -131t-110.5 -162t-82.5 -90zM399 -244q6 12 48 75t42 167q0 78 -34 82h-13l-12 12q0 13 16 19l115 49q37 14 47 14q33 0 33 -45q0 -59 -39 -131t-110.5 -162 t-81.5 -90z" />
<glyph unicode="&#x2022;" horiz-adv-x="1366" d="M401 696q0 117 83 200t204 83q117 0 199 -82t82 -201q0 -117 -82 -200.5t-199 -83.5q-121 0 -204 83t-83 201z" />
<glyph unicode="&#x2026;" horiz-adv-x="1351" d="M111 119q6 12 10 12l125 57l41 11q51 0 51 -66q0 -33 -18.5 -67.5t-43.5 -45.5l-100 -45l-20 -6l-9 8l3 11q8 18 8 51q0 68 -29 67h-8q-10 8 -10 13zM561 119q6 12 10 12l125 57l41 11q51 0 51 -66q0 -33 -18 -67.5t-43 -45.5l-100 -45l-21 -6l-8 8l2 11q8 18 8 51 q0 68 -28 67h-9q-10 8 -10 13zM1012 119q6 12 10 12l125 57l41 11q51 0 51 -66q0 -33 -18.5 -67.5t-42.5 -45.5l-101 -45l-20 -6l-8 8l2 11q8 18 8 51q0 68 -29 67q-18 0 -18 13z" />
<glyph unicode="&#x202f;" horiz-adv-x="356" />
<glyph unicode="&#x2039;" horiz-adv-x="643" d="M76 498l321 299q18 18 32.5 28.5t57.5 34.5l58 35l6 2l12 -12l-4 -6l-334 -301q-8 -10 -35 -23q12 -6 20.5 -13t20.5 -18l324 -293q-2 -12 -6 -12l-70 -35q-29 -12 -37 -12q-14 0 -25 9t-26 22z" />
<glyph unicode="&#x203a;" horiz-adv-x="643" d="M80 129l4 6l332 301q16 14 37 23q-12 6 -20.5 12t-20.5 18l-324 291l-2 6q4 8 8 9l70 34q25 12 37 13q14 0 20 -3t31 -30l315 -295l-321 -297q-23 -23 -33 -30t-57 -35l-58 -35q-8 0 -18 12z" />
<glyph unicode="&#x205f;" horiz-adv-x="445" />
<glyph unicode="&#x2122;" horiz-adv-x="1808" d="M27 1319q0 10 24 18l47 15q43 14 88 14h457q18 0 19 -12q-8 -12 -17 -15l-65 -22q-25 -6 -37.5 -8t-38.5 -2h-117v-627q0 -39 8 -39q8 -2 10.5 -7t4.5 -7q0 -10 -17 -17l-84 -28l-18 -7q-16 0 -17 23v709h-231q-16 0 -16 12zM659 594q0 18 6.5 34.5t10.5 37.5l196 657 l-8 -2q-12 0 -12 12t16 17l52 16l34 8q16 0 27 -35l176 -526l27 -94l30 98l177 506l-9 -2l-12 12q0 10 14 17l58 16l33 8q12 0 22 -33l178 -636l15 -48q6 -23 18 -22l8 2l10 2l13 -12q0 -12 -23 -19l-74 -22l-28 -6q-18 0 -22.5 7t-20.5 64l-127 469l-23 90 q-14 -72 -49 -166l-115 -321q-25 -68 -34 -83t-43.5 -37.5t-46.5 -22.5q-17 -1 -27 32l-170 512l-25 86q-8 -49 -11 -57t-30 -100l-106 -361l-10 -47q4 -8 8 -9t7 -6t5 -7q-10 -14 -14 -17l-66 -24l-20 -7q-14 0 -15 19z" />
<glyph unicode="&#x25fc;" horiz-adv-x="972" d="M0 0v973h973v-973h-973z" />
</font>
</defs>
</svg>
